M48
; DRILL file {KiCad (5.1.7)-1} date 02/05/22 15:55:09
; FORMAT={-:-/ absolute / inch / decimal}
; #@! TF.CreationDate,2022-02-05T15:55:09+01:00
; #@! TF.GenerationSoftware,Kicad,Pcbnew,(5.1.7)-1
FMAT,2
INCH
T1C0.0157
T2C0.0315
T3C0.0394
T4C0.0433
T5C0.0669
T6C0.0709
T7C0.0787
T8C0.1260
T9C0.2402
T10C0.3150
T11C0.1378
%
G90
G05
T1
X4.825Y-2.1
X4.9Y-2.1
X5.5Y-3.3
X6.075Y-2.875
X6.125Y-4.1
X6.2Y-2.95
X6.325Y-2.875
X6.475Y-2.6
X6.475Y-2.65
T2
X6.0Y-2.625
X6.4Y-2.625
X4.05Y-3.325
X4.05Y-3.725
X4.825Y-3.525
X5.225Y-3.525
X4.975Y-3.375
X5.075Y-3.375
X5.375Y-2.2
X5.475Y-2.2
X5.6Y-3.8
X6.0Y-3.8
X5.325Y-4.0
X5.425Y-4.0
X5.025Y-4.2
X5.425Y-4.2
X5.6Y-4.0
X6.0Y-4.0
X6.0Y-2.825
X6.4Y-2.825
X5.6Y-4.2
X6.0Y-4.2
X4.85Y-2.325
X4.85Y-2.725
X5.6Y-4.4
X6.0Y-4.4
X5.675Y-3.075
X5.775Y-3.075
T3
X6.2Y-4.2
X6.2Y-4.3
X6.2Y-4.4
X6.2Y-3.6
X6.2Y-3.7
X6.2Y-3.8
X4.8781Y-4.475
X4.9766Y-4.475
X5.075Y-4.475
T4
X7.75Y-3.55
X7.85Y-3.55
X7.95Y-3.55
T5
X4.6Y-2.3108
X4.6Y-2.525
X4.6Y-2.7392
T6
X4.7876Y-4.7703
X5.1656Y-4.7703
T7
X4.6Y-3.175
X4.6Y-3.375
X4.6Y-3.6581
X4.6Y-3.875
T8
X3.0Y-1.95
X3.0Y-5.375
X8.775Y-1.95
X8.775Y-5.375
T9
X5.925Y-4.9
X7.075Y-4.9
X8.2549Y-4.9
X7.075Y-2.275
X3.5Y-2.575
X3.5Y-3.7549
T10
X5.25Y-2.525
T11
X7.85Y-4.2059
T0
M30
