%TF.GenerationSoftware,KiCad,Pcbnew,(5.1.7)-1*%
%TF.CreationDate,2022-02-05T15:55:05+01:00*%
%TF.ProjectId,Dev_Board,4465765f-426f-4617-9264-2e6b69636164,rev?*%
%TF.SameCoordinates,Original*%
%TF.FileFunction,Soldermask,Top*%
%TF.FilePolarity,Negative*%
%FSLAX46Y46*%
G04 Gerber Fmt 4.6, Leading zero omitted, Abs format (unit mm)*
G04 Created by KiCad (PCBNEW (5.1.7)-1) date 2022-02-05 15:55:05*
%MOMM*%
%LPD*%
G01*
G04 APERTURE LIST*
%ADD10C,0.100000*%
%ADD11C,3.000000*%
%ADD12C,1.600000*%
%ADD13C,4.000000*%
%ADD14O,1.905000X2.000000*%
%ADD15R,1.905000X2.000000*%
%ADD16O,3.500000X3.500000*%
%ADD17C,1.400000*%
%ADD18R,1.526000X0.650000*%
%ADD19O,1.700000X1.700000*%
%ADD20R,1.700000X1.700000*%
%ADD21C,10.160000*%
%ADD22R,2.550000X2.550000*%
%ADD23C,2.550000*%
%ADD24R,1.800000X1.800000*%
%ADD25C,1.800000*%
%ADD26C,3.240000*%
G04 APERTURE END LIST*
D10*
G36*
X206375000Y-111760000D02*
G01*
X192405000Y-111760000D01*
X192405000Y-93980000D01*
X206375000Y-93980000D01*
X206375000Y-111760000D01*
G37*
X206375000Y-111760000D02*
X192405000Y-111760000D01*
X192405000Y-93980000D01*
X206375000Y-93980000D01*
X206375000Y-111760000D01*
D11*
X109220000Y-80645000D02*
X116840000Y-73025000D01*
X109220000Y-79375000D02*
X116840000Y-71755000D01*
X109220000Y-80010000D02*
X109220000Y-79375000D01*
X109220000Y-96520000D02*
X111125000Y-98425000D01*
X109220000Y-93980000D02*
X104775000Y-98425000D01*
X109220000Y-92075000D02*
X109220000Y-97790000D01*
X116840000Y-98425000D02*
X90170000Y-98425000D01*
X116840000Y-76200000D02*
X113030000Y-76200000D01*
X109220000Y-80010000D02*
X116840000Y-72390000D01*
X109220000Y-86360000D02*
X109220000Y-80010000D01*
X116840000Y-80645000D02*
X116840000Y-69215000D01*
X116840000Y-64135000D02*
X89535000Y-64135000D01*
%TO.C,R9*%
G36*
G01*
X131815000Y-106125000D02*
X131815000Y-107235000D01*
G75*
G02*
X131490000Y-107560000I-325000J0D01*
G01*
X130840000Y-107560000D01*
G75*
G02*
X130515000Y-107235000I0J325000D01*
G01*
X130515000Y-106125000D01*
G75*
G02*
X130840000Y-105800000I325000J0D01*
G01*
X131490000Y-105800000D01*
G75*
G02*
X131815000Y-106125000I0J-325000D01*
G01*
G37*
G36*
G01*
X134915000Y-106125000D02*
X134915000Y-107235000D01*
G75*
G02*
X134590000Y-107560000I-325000J0D01*
G01*
X133940000Y-107560000D01*
G75*
G02*
X133615000Y-107235000I0J325000D01*
G01*
X133615000Y-106125000D01*
G75*
G02*
X133940000Y-105800000I325000J0D01*
G01*
X134590000Y-105800000D01*
G75*
G02*
X134915000Y-106125000I0J-325000D01*
G01*
G37*
D12*
X127635000Y-106680000D03*
X137795000Y-106680000D03*
%TD*%
%TO.C,R13*%
G36*
G01*
X148220000Y-107235000D02*
X148220000Y-106125000D01*
G75*
G02*
X148545000Y-105800000I325000J0D01*
G01*
X149195000Y-105800000D01*
G75*
G02*
X149520000Y-106125000I0J-325000D01*
G01*
X149520000Y-107235000D01*
G75*
G02*
X149195000Y-107560000I-325000J0D01*
G01*
X148545000Y-107560000D01*
G75*
G02*
X148220000Y-107235000I0J325000D01*
G01*
G37*
G36*
G01*
X145120000Y-107235000D02*
X145120000Y-106125000D01*
G75*
G02*
X145445000Y-105800000I325000J0D01*
G01*
X146095000Y-105800000D01*
G75*
G02*
X146420000Y-106125000I0J-325000D01*
G01*
X146420000Y-107235000D01*
G75*
G02*
X146095000Y-107560000I-325000J0D01*
G01*
X145445000Y-107560000D01*
G75*
G02*
X145120000Y-107235000I0J325000D01*
G01*
G37*
X152400000Y-106680000D03*
X142240000Y-106680000D03*
%TD*%
%TO.C,R12*%
G36*
G01*
X146420000Y-111205000D02*
X146420000Y-112315000D01*
G75*
G02*
X146095000Y-112640000I-325000J0D01*
G01*
X145445000Y-112640000D01*
G75*
G02*
X145120000Y-112315000I0J325000D01*
G01*
X145120000Y-111205000D01*
G75*
G02*
X145445000Y-110880000I325000J0D01*
G01*
X146095000Y-110880000D01*
G75*
G02*
X146420000Y-111205000I0J-325000D01*
G01*
G37*
G36*
G01*
X149520000Y-111205000D02*
X149520000Y-112315000D01*
G75*
G02*
X149195000Y-112640000I-325000J0D01*
G01*
X148545000Y-112640000D01*
G75*
G02*
X148220000Y-112315000I0J325000D01*
G01*
X148220000Y-111205000D01*
G75*
G02*
X148545000Y-110880000I325000J0D01*
G01*
X149195000Y-110880000D01*
G75*
G02*
X149520000Y-111205000I0J-325000D01*
G01*
G37*
X142240000Y-111760000D03*
X152400000Y-111760000D03*
%TD*%
D13*
%TO.C,R5*%
X116840000Y-80645000D03*
X116840000Y-85725000D03*
X116840000Y-92916000D03*
X116840000Y-98425000D03*
%TD*%
D14*
%TO.C,U1*%
X196850000Y-90170000D03*
X199390000Y-90170000D03*
D15*
X201930000Y-90170000D03*
D16*
X199390000Y-106830000D03*
%TD*%
%TO.C,C5*%
G36*
G01*
X156580000Y-100949997D02*
X156580000Y-102250003D01*
G75*
G02*
X156330003Y-102500000I-249997J0D01*
G01*
X155504997Y-102500000D01*
G75*
G02*
X155255000Y-102250003I0J249997D01*
G01*
X155255000Y-100949997D01*
G75*
G02*
X155504997Y-100700000I249997J0D01*
G01*
X156330003Y-100700000D01*
G75*
G02*
X156580000Y-100949997I0J-249997D01*
G01*
G37*
G36*
G01*
X159705000Y-100949997D02*
X159705000Y-102250003D01*
G75*
G02*
X159455003Y-102500000I-249997J0D01*
G01*
X158629997Y-102500000D01*
G75*
G02*
X158380000Y-102250003I0J249997D01*
G01*
X158380000Y-100949997D01*
G75*
G02*
X158629997Y-100700000I249997J0D01*
G01*
X159455003Y-100700000D01*
G75*
G02*
X159705000Y-100949997I0J-249997D01*
G01*
G37*
%TD*%
%TO.C,C4*%
G36*
G01*
X208264997Y-95807500D02*
X209565003Y-95807500D01*
G75*
G02*
X209815000Y-96057497I0J-249997D01*
G01*
X209815000Y-96882503D01*
G75*
G02*
X209565003Y-97132500I-249997J0D01*
G01*
X208264997Y-97132500D01*
G75*
G02*
X208015000Y-96882503I0J249997D01*
G01*
X208015000Y-96057497D01*
G75*
G02*
X208264997Y-95807500I249997J0D01*
G01*
G37*
G36*
G01*
X208264997Y-92682500D02*
X209565003Y-92682500D01*
G75*
G02*
X209815000Y-92932497I0J-249997D01*
G01*
X209815000Y-93757503D01*
G75*
G02*
X209565003Y-94007500I-249997J0D01*
G01*
X208264997Y-94007500D01*
G75*
G02*
X208015000Y-93757503I0J249997D01*
G01*
X208015000Y-92932497D01*
G75*
G02*
X208264997Y-92682500I249997J0D01*
G01*
G37*
%TD*%
%TO.C,R6*%
G36*
G01*
X107245000Y-90535000D02*
X111195000Y-90535000D01*
G75*
G02*
X111445000Y-90785000I0J-250000D01*
G01*
X111445000Y-93485000D01*
G75*
G02*
X111195000Y-93735000I-250000J0D01*
G01*
X107245000Y-93735000D01*
G75*
G02*
X106995000Y-93485000I0J250000D01*
G01*
X106995000Y-90785000D01*
G75*
G02*
X107245000Y-90535000I250000J0D01*
G01*
G37*
G36*
G01*
X107245000Y-85335000D02*
X111195000Y-85335000D01*
G75*
G02*
X111445000Y-85585000I0J-250000D01*
G01*
X111445000Y-88285000D01*
G75*
G02*
X111195000Y-88535000I-250000J0D01*
G01*
X107245000Y-88535000D01*
G75*
G02*
X106995000Y-88285000I0J250000D01*
G01*
X106995000Y-85585000D01*
G75*
G02*
X107245000Y-85335000I250000J0D01*
G01*
G37*
%TD*%
D17*
%TO.C,TP4*%
X128905000Y-85725000D03*
X126365000Y-85725000D03*
%TD*%
%TO.C,TP3*%
X146685000Y-78105000D03*
X144145000Y-78105000D03*
%TD*%
%TO.C,TP2*%
X139065000Y-55880000D03*
X136525000Y-55880000D03*
%TD*%
%TO.C,TP1*%
X135255000Y-101600000D03*
X137795000Y-101600000D03*
%TD*%
%TO.C,C1*%
G36*
G01*
X125410000Y-82565003D02*
X125410000Y-81264997D01*
G75*
G02*
X125659997Y-81015000I249997J0D01*
G01*
X126485003Y-81015000D01*
G75*
G02*
X126735000Y-81264997I0J-249997D01*
G01*
X126735000Y-82565003D01*
G75*
G02*
X126485003Y-82815000I-249997J0D01*
G01*
X125659997Y-82815000D01*
G75*
G02*
X125410000Y-82565003I0J249997D01*
G01*
G37*
G36*
G01*
X128535000Y-82565003D02*
X128535000Y-81264997D01*
G75*
G02*
X128784997Y-81015000I249997J0D01*
G01*
X129610003Y-81015000D01*
G75*
G02*
X129860000Y-81264997I0J-249997D01*
G01*
X129860000Y-82565003D01*
G75*
G02*
X129610003Y-82815000I-249997J0D01*
G01*
X128784997Y-82815000D01*
G75*
G02*
X128535000Y-82565003I0J249997D01*
G01*
G37*
%TD*%
D18*
%TO.C,IC1*%
X136353000Y-87630000D03*
X136353000Y-88900000D03*
X136353000Y-90170000D03*
X136353000Y-91440000D03*
X141777000Y-91440000D03*
X141777000Y-90170000D03*
X141777000Y-88900000D03*
X141777000Y-87630000D03*
%TD*%
%TO.C,IC2*%
X160192000Y-75565000D03*
X160192000Y-76835000D03*
X160192000Y-78105000D03*
X160192000Y-79375000D03*
X154768000Y-79375000D03*
X154768000Y-78105000D03*
X154768000Y-76835000D03*
X154768000Y-75565000D03*
%TD*%
D19*
%TO.C,J1*%
X157480000Y-96520000D03*
X157480000Y-93980000D03*
D20*
X157480000Y-91440000D03*
%TD*%
D21*
%TO.C,J2*%
X150495000Y-124460000D03*
%TD*%
D20*
%TO.C,J3*%
X157480000Y-106680000D03*
D19*
X157480000Y-109220000D03*
X157480000Y-111760000D03*
%TD*%
D21*
%TO.C,J4*%
X88900000Y-65405000D03*
X88900000Y-95375000D03*
%TD*%
%TO.C,J5*%
X179705000Y-57785000D03*
%TD*%
%TO.C,J6*%
X209675000Y-124460000D03*
X179705000Y-124460000D03*
%TD*%
D22*
%TO.C,Q1*%
X116840000Y-58695000D03*
D23*
X116840000Y-64135000D03*
X116840000Y-69575000D03*
%TD*%
%TO.C,R1*%
G36*
G01*
X146420000Y-95965000D02*
X146420000Y-97075000D01*
G75*
G02*
X146095000Y-97400000I-325000J0D01*
G01*
X145445000Y-97400000D01*
G75*
G02*
X145120000Y-97075000I0J325000D01*
G01*
X145120000Y-95965000D01*
G75*
G02*
X145445000Y-95640000I325000J0D01*
G01*
X146095000Y-95640000D01*
G75*
G02*
X146420000Y-95965000I0J-325000D01*
G01*
G37*
G36*
G01*
X149520000Y-95965000D02*
X149520000Y-97075000D01*
G75*
G02*
X149195000Y-97400000I-325000J0D01*
G01*
X148545000Y-97400000D01*
G75*
G02*
X148220000Y-97075000I0J325000D01*
G01*
X148220000Y-95965000D01*
G75*
G02*
X148545000Y-95640000I325000J0D01*
G01*
X149195000Y-95640000D01*
G75*
G02*
X149520000Y-95965000I0J-325000D01*
G01*
G37*
D12*
X142240000Y-96520000D03*
X152400000Y-96520000D03*
%TD*%
%TO.C,R2*%
G36*
G01*
X146420000Y-101045000D02*
X146420000Y-102155000D01*
G75*
G02*
X146095000Y-102480000I-325000J0D01*
G01*
X145445000Y-102480000D01*
G75*
G02*
X145120000Y-102155000I0J325000D01*
G01*
X145120000Y-101045000D01*
G75*
G02*
X145445000Y-100720000I325000J0D01*
G01*
X146095000Y-100720000D01*
G75*
G02*
X146420000Y-101045000I0J-325000D01*
G01*
G37*
G36*
G01*
X149520000Y-101045000D02*
X149520000Y-102155000D01*
G75*
G02*
X149195000Y-102480000I-325000J0D01*
G01*
X148545000Y-102480000D01*
G75*
G02*
X148220000Y-102155000I0J325000D01*
G01*
X148220000Y-101045000D01*
G75*
G02*
X148545000Y-100720000I325000J0D01*
G01*
X149195000Y-100720000D01*
G75*
G02*
X149520000Y-101045000I0J-325000D01*
G01*
G37*
X142240000Y-101600000D03*
X152400000Y-101600000D03*
%TD*%
%TO.C,R3*%
X123190000Y-59055000D03*
X123190000Y-69215000D03*
G36*
G01*
X122635000Y-61935000D02*
X123745000Y-61935000D01*
G75*
G02*
X124070000Y-62260000I0J-325000D01*
G01*
X124070000Y-62910000D01*
G75*
G02*
X123745000Y-63235000I-325000J0D01*
G01*
X122635000Y-63235000D01*
G75*
G02*
X122310000Y-62910000I0J325000D01*
G01*
X122310000Y-62260000D01*
G75*
G02*
X122635000Y-61935000I325000J0D01*
G01*
G37*
G36*
G01*
X122635000Y-65035000D02*
X123745000Y-65035000D01*
G75*
G02*
X124070000Y-65360000I0J-325000D01*
G01*
X124070000Y-66010000D01*
G75*
G02*
X123745000Y-66335000I-325000J0D01*
G01*
X122635000Y-66335000D01*
G75*
G02*
X122310000Y-66010000I0J325000D01*
G01*
X122310000Y-65360000D01*
G75*
G02*
X122635000Y-65035000I325000J0D01*
G01*
G37*
%TD*%
%TO.C,R4*%
X132715000Y-89535000D03*
X122555000Y-89535000D03*
G36*
G01*
X129835000Y-88980000D02*
X129835000Y-90090000D01*
G75*
G02*
X129510000Y-90415000I-325000J0D01*
G01*
X128860000Y-90415000D01*
G75*
G02*
X128535000Y-90090000I0J325000D01*
G01*
X128535000Y-88980000D01*
G75*
G02*
X128860000Y-88655000I325000J0D01*
G01*
X129510000Y-88655000D01*
G75*
G02*
X129835000Y-88980000I0J-325000D01*
G01*
G37*
G36*
G01*
X126735000Y-88980000D02*
X126735000Y-90090000D01*
G75*
G02*
X126410000Y-90415000I-325000J0D01*
G01*
X125760000Y-90415000D01*
G75*
G02*
X125435000Y-90090000I0J325000D01*
G01*
X125435000Y-88980000D01*
G75*
G02*
X125760000Y-88655000I325000J0D01*
G01*
X126410000Y-88655000D01*
G75*
G02*
X126735000Y-88980000I0J-325000D01*
G01*
G37*
%TD*%
%TO.C,R7*%
X102870000Y-84455000D03*
X102870000Y-94615000D03*
G36*
G01*
X102315000Y-87335000D02*
X103425000Y-87335000D01*
G75*
G02*
X103750000Y-87660000I0J-325000D01*
G01*
X103750000Y-88310000D01*
G75*
G02*
X103425000Y-88635000I-325000J0D01*
G01*
X102315000Y-88635000D01*
G75*
G02*
X101990000Y-88310000I0J325000D01*
G01*
X101990000Y-87660000D01*
G75*
G02*
X102315000Y-87335000I325000J0D01*
G01*
G37*
G36*
G01*
X102315000Y-90435000D02*
X103425000Y-90435000D01*
G75*
G02*
X103750000Y-90760000I0J-325000D01*
G01*
X103750000Y-91410000D01*
G75*
G02*
X103425000Y-91735000I-325000J0D01*
G01*
X102315000Y-91735000D01*
G75*
G02*
X101990000Y-91410000I0J325000D01*
G01*
X101990000Y-90760000D01*
G75*
G02*
X102315000Y-90435000I325000J0D01*
G01*
G37*
%TD*%
%TO.C,R8*%
G36*
G01*
X158380000Y-72310000D02*
X158380000Y-71200000D01*
G75*
G02*
X158705000Y-70875000I325000J0D01*
G01*
X159355000Y-70875000D01*
G75*
G02*
X159680000Y-71200000I0J-325000D01*
G01*
X159680000Y-72310000D01*
G75*
G02*
X159355000Y-72635000I-325000J0D01*
G01*
X158705000Y-72635000D01*
G75*
G02*
X158380000Y-72310000I0J325000D01*
G01*
G37*
G36*
G01*
X155280000Y-72310000D02*
X155280000Y-71200000D01*
G75*
G02*
X155605000Y-70875000I325000J0D01*
G01*
X156255000Y-70875000D01*
G75*
G02*
X156580000Y-71200000I0J-325000D01*
G01*
X156580000Y-72310000D01*
G75*
G02*
X156255000Y-72635000I-325000J0D01*
G01*
X155605000Y-72635000D01*
G75*
G02*
X155280000Y-72310000I0J325000D01*
G01*
G37*
X162560000Y-71755000D03*
X152400000Y-71755000D03*
%TD*%
%TO.C,R10*%
X162560000Y-66675000D03*
X152400000Y-66675000D03*
G36*
G01*
X159680000Y-66120000D02*
X159680000Y-67230000D01*
G75*
G02*
X159355000Y-67555000I-325000J0D01*
G01*
X158705000Y-67555000D01*
G75*
G02*
X158380000Y-67230000I0J325000D01*
G01*
X158380000Y-66120000D01*
G75*
G02*
X158705000Y-65795000I325000J0D01*
G01*
X159355000Y-65795000D01*
G75*
G02*
X159680000Y-66120000I0J-325000D01*
G01*
G37*
G36*
G01*
X156580000Y-66120000D02*
X156580000Y-67230000D01*
G75*
G02*
X156255000Y-67555000I-325000J0D01*
G01*
X155605000Y-67555000D01*
G75*
G02*
X155280000Y-67230000I0J325000D01*
G01*
X155280000Y-66120000D01*
G75*
G02*
X155605000Y-65795000I325000J0D01*
G01*
X156255000Y-65795000D01*
G75*
G02*
X156580000Y-66120000I0J-325000D01*
G01*
G37*
%TD*%
D24*
%TO.C,RV1*%
X128905000Y-113665000D03*
D25*
X126405000Y-113665000D03*
X123905000Y-113665000D03*
D26*
X121605000Y-121165000D03*
X131205000Y-121165000D03*
%TD*%
M02*
