%TF.GenerationSoftware,KiCad,Pcbnew,(5.1.7)-1*%
%TF.CreationDate,2022-02-05T15:55:05+01:00*%
%TF.ProjectId,Dev_Board,4465765f-426f-4617-9264-2e6b69636164,rev?*%
%TF.SameCoordinates,Original*%
%TF.FileFunction,Legend,Top*%
%TF.FilePolarity,Positive*%
%FSLAX46Y46*%
G04 Gerber Fmt 4.6, Leading zero omitted, Abs format (unit mm)*
G04 Created by KiCad (PCBNEW (5.1.7)-1) date 2022-02-05 15:55:05*
%MOMM*%
%LPD*%
G01*
G04 APERTURE LIST*
%ADD10C,0.500000*%
%ADD11C,0.300000*%
%ADD12C,0.350000*%
%ADD13C,0.400000*%
%ADD14C,0.120000*%
%ADD15C,0.010000*%
%ADD16C,0.150000*%
%ADD17C,0.200000*%
%ADD18C,0.254000*%
G04 APERTURE END LIST*
D10*
X101600000Y-50800000D02*
X170180000Y-50800000D01*
X103032857Y-45434523D02*
X104366190Y-49434523D01*
X105699523Y-45434523D01*
X108747142Y-49434523D02*
X108747142Y-47339285D01*
X108556666Y-46958333D01*
X108175714Y-46767857D01*
X107413809Y-46767857D01*
X107032857Y-46958333D01*
X108747142Y-49244047D02*
X108366190Y-49434523D01*
X107413809Y-49434523D01*
X107032857Y-49244047D01*
X106842380Y-48863095D01*
X106842380Y-48482142D01*
X107032857Y-48101190D01*
X107413809Y-47910714D01*
X108366190Y-47910714D01*
X108747142Y-47720238D01*
X110651904Y-49434523D02*
X110651904Y-46767857D01*
X110651904Y-47529761D02*
X110842380Y-47148809D01*
X111032857Y-46958333D01*
X111413809Y-46767857D01*
X111794761Y-46767857D01*
X113128095Y-49434523D02*
X113128095Y-46767857D01*
X113128095Y-45434523D02*
X112937619Y-45625000D01*
X113128095Y-45815476D01*
X113318571Y-45625000D01*
X113128095Y-45434523D01*
X113128095Y-45815476D01*
X116747142Y-49434523D02*
X116747142Y-47339285D01*
X116556666Y-46958333D01*
X116175714Y-46767857D01*
X115413809Y-46767857D01*
X115032857Y-46958333D01*
X116747142Y-49244047D02*
X116366190Y-49434523D01*
X115413809Y-49434523D01*
X115032857Y-49244047D01*
X114842380Y-48863095D01*
X114842380Y-48482142D01*
X115032857Y-48101190D01*
X115413809Y-47910714D01*
X116366190Y-47910714D01*
X116747142Y-47720238D01*
X118651904Y-49434523D02*
X118651904Y-45434523D01*
X118651904Y-46958333D02*
X119032857Y-46767857D01*
X119794761Y-46767857D01*
X120175714Y-46958333D01*
X120366190Y-47148809D01*
X120556666Y-47529761D01*
X120556666Y-48672619D01*
X120366190Y-49053571D01*
X120175714Y-49244047D01*
X119794761Y-49434523D01*
X119032857Y-49434523D01*
X118651904Y-49244047D01*
X122842380Y-49434523D02*
X122461428Y-49244047D01*
X122270952Y-48863095D01*
X122270952Y-45434523D01*
X125890000Y-49244047D02*
X125509047Y-49434523D01*
X124747142Y-49434523D01*
X124366190Y-49244047D01*
X124175714Y-48863095D01*
X124175714Y-47339285D01*
X124366190Y-46958333D01*
X124747142Y-46767857D01*
X125509047Y-46767857D01*
X125890000Y-46958333D01*
X126080476Y-47339285D01*
X126080476Y-47720238D01*
X124175714Y-48101190D01*
X132747142Y-49434523D02*
X130842380Y-49434523D01*
X130842380Y-45434523D01*
X135794761Y-49434523D02*
X135794761Y-47339285D01*
X135604285Y-46958333D01*
X135223333Y-46767857D01*
X134461428Y-46767857D01*
X134080476Y-46958333D01*
X135794761Y-49244047D02*
X135413809Y-49434523D01*
X134461428Y-49434523D01*
X134080476Y-49244047D01*
X133890000Y-48863095D01*
X133890000Y-48482142D01*
X134080476Y-48101190D01*
X134461428Y-47910714D01*
X135413809Y-47910714D01*
X135794761Y-47720238D01*
X137509047Y-49244047D02*
X137890000Y-49434523D01*
X138651904Y-49434523D01*
X139032857Y-49244047D01*
X139223333Y-48863095D01*
X139223333Y-48672619D01*
X139032857Y-48291666D01*
X138651904Y-48101190D01*
X138080476Y-48101190D01*
X137699523Y-47910714D01*
X137509047Y-47529761D01*
X137509047Y-47339285D01*
X137699523Y-46958333D01*
X138080476Y-46767857D01*
X138651904Y-46767857D01*
X139032857Y-46958333D01*
X140366190Y-46767857D02*
X141890000Y-46767857D01*
X140937619Y-45434523D02*
X140937619Y-48863095D01*
X141128095Y-49244047D01*
X141509047Y-49434523D01*
X141890000Y-49434523D01*
X145699523Y-45434523D02*
X147032857Y-49434523D01*
X148366190Y-45434523D01*
X151223333Y-49244047D02*
X150842380Y-49434523D01*
X150080476Y-49434523D01*
X149699523Y-49244047D01*
X149509047Y-48863095D01*
X149509047Y-47339285D01*
X149699523Y-46958333D01*
X150080476Y-46767857D01*
X150842380Y-46767857D01*
X151223333Y-46958333D01*
X151413809Y-47339285D01*
X151413809Y-47720238D01*
X149509047Y-48101190D01*
X153128095Y-49434523D02*
X153128095Y-46767857D01*
X153128095Y-47529761D02*
X153318571Y-47148809D01*
X153509047Y-46958333D01*
X153890000Y-46767857D01*
X154270952Y-46767857D01*
X155604285Y-49053571D02*
X155794761Y-49244047D01*
X155604285Y-49434523D01*
X155413809Y-49244047D01*
X155604285Y-49053571D01*
X155604285Y-49434523D01*
X162651904Y-49434523D02*
X160366190Y-49434523D01*
X161509047Y-49434523D02*
X161509047Y-45434523D01*
X161128095Y-46005952D01*
X160747142Y-46386904D01*
X160366190Y-46577380D01*
X164366190Y-49053571D02*
X164556666Y-49244047D01*
X164366190Y-49434523D01*
X164175714Y-49244047D01*
X164366190Y-49053571D01*
X164366190Y-49434523D01*
X168366190Y-49434523D02*
X166080476Y-49434523D01*
X167223333Y-49434523D02*
X167223333Y-45434523D01*
X166842380Y-46005952D01*
X166461428Y-46386904D01*
X166080476Y-46577380D01*
X227965000Y-83185000D02*
X182245000Y-83185000D01*
D11*
X183612857Y-80958571D02*
X183612857Y-82244285D01*
X183541428Y-82387142D01*
X183398571Y-82458571D01*
X183327142Y-82458571D01*
X183612857Y-80458571D02*
X183541428Y-80530000D01*
X183612857Y-80601428D01*
X183684285Y-80530000D01*
X183612857Y-80458571D01*
X183612857Y-80601428D01*
X184541428Y-81958571D02*
X184398571Y-81887142D01*
X184327142Y-81815714D01*
X184255714Y-81672857D01*
X184255714Y-81244285D01*
X184327142Y-81101428D01*
X184398571Y-81030000D01*
X184541428Y-80958571D01*
X184755714Y-80958571D01*
X184898571Y-81030000D01*
X184969999Y-81101428D01*
X185041428Y-81244285D01*
X185041428Y-81672857D01*
X184969999Y-81815714D01*
X184898571Y-81887142D01*
X184755714Y-81958571D01*
X184541428Y-81958571D01*
X185684285Y-81958571D02*
X185684285Y-80458571D01*
X186327142Y-81958571D02*
X186327142Y-81172857D01*
X186255714Y-81030000D01*
X186112857Y-80958571D01*
X185898571Y-80958571D01*
X185755714Y-81030000D01*
X185684285Y-81101428D01*
X187684285Y-81958571D02*
X187684285Y-81172857D01*
X187612857Y-81030000D01*
X187469999Y-80958571D01*
X187184285Y-80958571D01*
X187041428Y-81030000D01*
X187684285Y-81887142D02*
X187541428Y-81958571D01*
X187184285Y-81958571D01*
X187041428Y-81887142D01*
X186969999Y-81744285D01*
X186969999Y-81601428D01*
X187041428Y-81458571D01*
X187184285Y-81387142D01*
X187541428Y-81387142D01*
X187684285Y-81315714D01*
X188398571Y-80958571D02*
X188398571Y-81958571D01*
X188398571Y-81101428D02*
X188469999Y-81030000D01*
X188612857Y-80958571D01*
X188827142Y-80958571D01*
X188969999Y-81030000D01*
X189041428Y-81172857D01*
X189041428Y-81958571D01*
X189755714Y-80958571D02*
X189755714Y-81958571D01*
X189755714Y-81101428D02*
X189827142Y-81030000D01*
X189969999Y-80958571D01*
X190184285Y-80958571D01*
X190327142Y-81030000D01*
X190398571Y-81172857D01*
X190398571Y-81958571D01*
X191684285Y-81887142D02*
X191541428Y-81958571D01*
X191255714Y-81958571D01*
X191112857Y-81887142D01*
X191041428Y-81744285D01*
X191041428Y-81172857D01*
X191112857Y-81030000D01*
X191255714Y-80958571D01*
X191541428Y-80958571D01*
X191684285Y-81030000D01*
X191755714Y-81172857D01*
X191755714Y-81315714D01*
X191041428Y-81458571D01*
X192327142Y-81887142D02*
X192469999Y-81958571D01*
X192755714Y-81958571D01*
X192898571Y-81887142D01*
X192969999Y-81744285D01*
X192969999Y-81672857D01*
X192898571Y-81530000D01*
X192755714Y-81458571D01*
X192541428Y-81458571D01*
X192398571Y-81387142D01*
X192327142Y-81244285D01*
X192327142Y-81172857D01*
X192398571Y-81030000D01*
X192541428Y-80958571D01*
X192755714Y-80958571D01*
X192898571Y-81030000D01*
X193612857Y-81815714D02*
X193684285Y-81887142D01*
X193612857Y-81958571D01*
X193541428Y-81887142D01*
X193612857Y-81815714D01*
X193612857Y-81958571D01*
X194327142Y-81958571D02*
X194327142Y-80958571D01*
X194327142Y-81244285D02*
X194398571Y-81101428D01*
X194469999Y-81030000D01*
X194612857Y-80958571D01*
X194755714Y-80958571D01*
X195469999Y-81958571D02*
X195327142Y-81887142D01*
X195255714Y-81815714D01*
X195184285Y-81672857D01*
X195184285Y-81244285D01*
X195255714Y-81101428D01*
X195327142Y-81030000D01*
X195469999Y-80958571D01*
X195684285Y-80958571D01*
X195827142Y-81030000D01*
X195898571Y-81101428D01*
X195969999Y-81244285D01*
X195969999Y-81672857D01*
X195898571Y-81815714D01*
X195827142Y-81887142D01*
X195684285Y-81958571D01*
X195469999Y-81958571D01*
X196398571Y-80958571D02*
X196969999Y-80958571D01*
X196612857Y-80458571D02*
X196612857Y-81744285D01*
X196684285Y-81887142D01*
X196827142Y-81958571D01*
X196969999Y-81958571D01*
X197469999Y-81958571D02*
X197469999Y-80458571D01*
X198112857Y-81958571D02*
X198112857Y-81172857D01*
X198041428Y-81030000D01*
X197898571Y-80958571D01*
X197684285Y-80958571D01*
X197541428Y-81030000D01*
X197469999Y-81101428D01*
X199398571Y-81887142D02*
X199255714Y-81958571D01*
X198969999Y-81958571D01*
X198827142Y-81887142D01*
X198755714Y-81744285D01*
X198755714Y-81172857D01*
X198827142Y-81030000D01*
X198969999Y-80958571D01*
X199255714Y-80958571D01*
X199398571Y-81030000D01*
X199469999Y-81172857D01*
X199469999Y-81315714D01*
X198755714Y-81458571D01*
X201041428Y-81244285D02*
X200969999Y-81172857D01*
X200827142Y-81101428D01*
X200684285Y-81101428D01*
X200541428Y-81172857D01*
X200469999Y-81244285D01*
X200398571Y-81387142D01*
X200398571Y-81530000D01*
X200469999Y-81672857D01*
X200541428Y-81744285D01*
X200684285Y-81815714D01*
X200827142Y-81815714D01*
X200969999Y-81744285D01*
X201041428Y-81672857D01*
X201041428Y-81101428D02*
X201041428Y-81672857D01*
X201112857Y-81744285D01*
X201184285Y-81744285D01*
X201327142Y-81672857D01*
X201398571Y-81530000D01*
X201398571Y-81172857D01*
X201255714Y-80958571D01*
X201041428Y-80815714D01*
X200755714Y-80744285D01*
X200469999Y-80815714D01*
X200255714Y-80958571D01*
X200112857Y-81172857D01*
X200041428Y-81458571D01*
X200112857Y-81744285D01*
X200255714Y-81958571D01*
X200469999Y-82101428D01*
X200755714Y-82172857D01*
X201041428Y-82101428D01*
X201255714Y-81958571D01*
X201969999Y-81887142D02*
X202112857Y-81958571D01*
X202398571Y-81958571D01*
X202541428Y-81887142D01*
X202612857Y-81744285D01*
X202612857Y-81672857D01*
X202541428Y-81530000D01*
X202398571Y-81458571D01*
X202184285Y-81458571D01*
X202041428Y-81387142D01*
X201969999Y-81244285D01*
X201969999Y-81172857D01*
X202041428Y-81030000D01*
X202184285Y-80958571D01*
X202398571Y-80958571D01*
X202541428Y-81030000D01*
X203041428Y-80958571D02*
X203612857Y-80958571D01*
X203255714Y-80458571D02*
X203255714Y-81744285D01*
X203327142Y-81887142D01*
X203469999Y-81958571D01*
X203612857Y-81958571D01*
X204112857Y-81815714D02*
X204184285Y-81887142D01*
X204112857Y-81958571D01*
X204041428Y-81887142D01*
X204112857Y-81815714D01*
X204112857Y-81958571D01*
X205041428Y-81958571D02*
X204898571Y-81887142D01*
X204827142Y-81815714D01*
X204755714Y-81672857D01*
X204755714Y-81244285D01*
X204827142Y-81101428D01*
X204898571Y-81030000D01*
X205041428Y-80958571D01*
X205255714Y-80958571D01*
X205398571Y-81030000D01*
X205469999Y-81101428D01*
X205541428Y-81244285D01*
X205541428Y-81672857D01*
X205469999Y-81815714D01*
X205398571Y-81887142D01*
X205255714Y-81958571D01*
X205041428Y-81958571D01*
X205969999Y-80958571D02*
X206541428Y-80958571D01*
X206184285Y-80458571D02*
X206184285Y-81744285D01*
X206255714Y-81887142D01*
X206398571Y-81958571D01*
X206541428Y-81958571D01*
X207041428Y-81958571D02*
X207041428Y-80458571D01*
X207684285Y-81958571D02*
X207684285Y-81172857D01*
X207612857Y-81030000D01*
X207469999Y-80958571D01*
X207255714Y-80958571D01*
X207112857Y-81030000D01*
X207041428Y-81101428D01*
X208398571Y-81387142D02*
X209541428Y-81387142D01*
X210255714Y-81958571D02*
X210255714Y-80958571D01*
X210255714Y-81244285D02*
X210327142Y-81101428D01*
X210398571Y-81030000D01*
X210541428Y-80958571D01*
X210684285Y-80958571D01*
X211755714Y-81887142D02*
X211612857Y-81958571D01*
X211327142Y-81958571D01*
X211184285Y-81887142D01*
X211112857Y-81744285D01*
X211112857Y-81172857D01*
X211184285Y-81030000D01*
X211327142Y-80958571D01*
X211612857Y-80958571D01*
X211755714Y-81030000D01*
X211827142Y-81172857D01*
X211827142Y-81315714D01*
X211112857Y-81458571D01*
X213112857Y-80958571D02*
X213112857Y-82172857D01*
X213041428Y-82315714D01*
X212970000Y-82387142D01*
X212827142Y-82458571D01*
X212612857Y-82458571D01*
X212470000Y-82387142D01*
X213112857Y-81887142D02*
X212970000Y-81958571D01*
X212684285Y-81958571D01*
X212541428Y-81887142D01*
X212470000Y-81815714D01*
X212398571Y-81672857D01*
X212398571Y-81244285D01*
X212470000Y-81101428D01*
X212541428Y-81030000D01*
X212684285Y-80958571D01*
X212970000Y-80958571D01*
X213112857Y-81030000D01*
X214398571Y-81887142D02*
X214255714Y-81958571D01*
X213970000Y-81958571D01*
X213827142Y-81887142D01*
X213755714Y-81744285D01*
X213755714Y-81172857D01*
X213827142Y-81030000D01*
X213970000Y-80958571D01*
X214255714Y-80958571D01*
X214398571Y-81030000D01*
X214470000Y-81172857D01*
X214470000Y-81315714D01*
X213755714Y-81458571D01*
X215112857Y-80958571D02*
X215112857Y-81958571D01*
X215112857Y-81101428D02*
X215184285Y-81030000D01*
X215327142Y-80958571D01*
X215541428Y-80958571D01*
X215684285Y-81030000D01*
X215755714Y-81172857D01*
X215755714Y-81958571D01*
X216398571Y-81887142D02*
X216541428Y-81958571D01*
X216827142Y-81958571D01*
X216970000Y-81887142D01*
X217041428Y-81744285D01*
X217041428Y-81672857D01*
X216970000Y-81530000D01*
X216827142Y-81458571D01*
X216612857Y-81458571D01*
X216470000Y-81387142D01*
X216398571Y-81244285D01*
X216398571Y-81172857D01*
X216470000Y-81030000D01*
X216612857Y-80958571D01*
X216827142Y-80958571D01*
X216970000Y-81030000D01*
X217684285Y-81958571D02*
X217684285Y-80458571D01*
X217684285Y-81030000D02*
X217827142Y-80958571D01*
X218112857Y-80958571D01*
X218255714Y-81030000D01*
X218327142Y-81101428D01*
X218398571Y-81244285D01*
X218398571Y-81672857D01*
X218327142Y-81815714D01*
X218255714Y-81887142D01*
X218112857Y-81958571D01*
X217827142Y-81958571D01*
X217684285Y-81887142D01*
X219684285Y-80958571D02*
X219684285Y-81958571D01*
X219041428Y-80958571D02*
X219041428Y-81744285D01*
X219112857Y-81887142D01*
X219255714Y-81958571D01*
X219470000Y-81958571D01*
X219612857Y-81887142D01*
X219684285Y-81815714D01*
X220398571Y-81958571D02*
X220398571Y-80958571D01*
X220398571Y-81244285D02*
X220470000Y-81101428D01*
X220541428Y-81030000D01*
X220684285Y-80958571D01*
X220827142Y-80958571D01*
X221970000Y-80958571D02*
X221970000Y-82172857D01*
X221898571Y-82315714D01*
X221827142Y-82387142D01*
X221684285Y-82458571D01*
X221470000Y-82458571D01*
X221327142Y-82387142D01*
X221970000Y-81887142D02*
X221827142Y-81958571D01*
X221541428Y-81958571D01*
X221398571Y-81887142D01*
X221327142Y-81815714D01*
X221255714Y-81672857D01*
X221255714Y-81244285D01*
X221327142Y-81101428D01*
X221398571Y-81030000D01*
X221541428Y-80958571D01*
X221827142Y-80958571D01*
X221970000Y-81030000D01*
X222684285Y-81815714D02*
X222755714Y-81887142D01*
X222684285Y-81958571D01*
X222612857Y-81887142D01*
X222684285Y-81815714D01*
X222684285Y-81958571D01*
X224041428Y-81958571D02*
X224041428Y-80458571D01*
X224041428Y-81887142D02*
X223898571Y-81958571D01*
X223612857Y-81958571D01*
X223470000Y-81887142D01*
X223398571Y-81815714D01*
X223327142Y-81672857D01*
X223327142Y-81244285D01*
X223398571Y-81101428D01*
X223470000Y-81030000D01*
X223612857Y-80958571D01*
X223898571Y-80958571D01*
X224041428Y-81030000D01*
X225327142Y-81887142D02*
X225184285Y-81958571D01*
X224898571Y-81958571D01*
X224755714Y-81887142D01*
X224684285Y-81744285D01*
X224684285Y-81172857D01*
X224755714Y-81030000D01*
X224898571Y-80958571D01*
X225184285Y-80958571D01*
X225327142Y-81030000D01*
X225398571Y-81172857D01*
X225398571Y-81315714D01*
X224684285Y-81458571D01*
D12*
X183583690Y-69539761D02*
X183583690Y-67539761D01*
X184250357Y-68968333D01*
X184917023Y-67539761D01*
X184917023Y-69539761D01*
X185583690Y-67539761D02*
X186726547Y-67539761D01*
X186155119Y-69539761D02*
X186155119Y-67539761D01*
X187297976Y-67730238D02*
X187393214Y-67635000D01*
X187583690Y-67539761D01*
X188059880Y-67539761D01*
X188250357Y-67635000D01*
X188345595Y-67730238D01*
X188440833Y-67920714D01*
X188440833Y-68111190D01*
X188345595Y-68396904D01*
X187202738Y-69539761D01*
X188440833Y-69539761D01*
X191488452Y-68492142D02*
X190821785Y-68492142D01*
X190821785Y-69539761D02*
X190821785Y-67539761D01*
X191774166Y-67539761D01*
X193393214Y-69539761D02*
X193393214Y-68492142D01*
X193297976Y-68301666D01*
X193107500Y-68206428D01*
X192726547Y-68206428D01*
X192536071Y-68301666D01*
X193393214Y-69444523D02*
X193202738Y-69539761D01*
X192726547Y-69539761D01*
X192536071Y-69444523D01*
X192440833Y-69254047D01*
X192440833Y-69063571D01*
X192536071Y-68873095D01*
X192726547Y-68777857D01*
X193202738Y-68777857D01*
X193393214Y-68682619D01*
X195202738Y-69444523D02*
X195012261Y-69539761D01*
X194631309Y-69539761D01*
X194440833Y-69444523D01*
X194345595Y-69349285D01*
X194250357Y-69158809D01*
X194250357Y-68587380D01*
X194345595Y-68396904D01*
X194440833Y-68301666D01*
X194631309Y-68206428D01*
X195012261Y-68206428D01*
X195202738Y-68301666D01*
X196059880Y-69539761D02*
X196059880Y-67539761D01*
X196917023Y-69539761D02*
X196917023Y-68492142D01*
X196821785Y-68301666D01*
X196631309Y-68206428D01*
X196345595Y-68206428D01*
X196155119Y-68301666D01*
X196059880Y-68396904D01*
X198726547Y-69539761D02*
X198726547Y-68492142D01*
X198631309Y-68301666D01*
X198440833Y-68206428D01*
X198059880Y-68206428D01*
X197869404Y-68301666D01*
X198726547Y-69444523D02*
X198536071Y-69539761D01*
X198059880Y-69539761D01*
X197869404Y-69444523D01*
X197774166Y-69254047D01*
X197774166Y-69063571D01*
X197869404Y-68873095D01*
X198059880Y-68777857D01*
X198536071Y-68777857D01*
X198726547Y-68682619D01*
X199678928Y-69539761D02*
X199678928Y-68206428D01*
X199678928Y-68587380D02*
X199774166Y-68396904D01*
X199869404Y-68301666D01*
X200059880Y-68206428D01*
X200250357Y-68206428D01*
X200631309Y-68206428D02*
X201393214Y-68206428D01*
X200917023Y-67539761D02*
X200917023Y-69254047D01*
X201012261Y-69444523D01*
X201202738Y-69539761D01*
X201393214Y-69539761D01*
X202059880Y-69539761D02*
X202059880Y-68206428D01*
X202059880Y-67539761D02*
X201964642Y-67635000D01*
X202059880Y-67730238D01*
X202155119Y-67635000D01*
X202059880Y-67539761D01*
X202059880Y-67730238D01*
X203012261Y-69539761D02*
X203012261Y-67539761D01*
X203202738Y-68777857D02*
X203774166Y-69539761D01*
X203774166Y-68206428D02*
X203012261Y-68968333D01*
X205393214Y-69444523D02*
X205202738Y-69539761D01*
X204821785Y-69539761D01*
X204631309Y-69444523D01*
X204536071Y-69254047D01*
X204536071Y-68492142D01*
X204631309Y-68301666D01*
X204821785Y-68206428D01*
X205202738Y-68206428D01*
X205393214Y-68301666D01*
X205488452Y-68492142D01*
X205488452Y-68682619D01*
X204536071Y-68873095D01*
X206631309Y-69539761D02*
X206440833Y-69444523D01*
X206345595Y-69254047D01*
X206345595Y-67539761D01*
X184155119Y-70889761D02*
X184155119Y-72318333D01*
X184059880Y-72604047D01*
X183869404Y-72794523D01*
X183583690Y-72889761D01*
X183393214Y-72889761D01*
X185393214Y-72889761D02*
X185202738Y-72794523D01*
X185107500Y-72699285D01*
X185012261Y-72508809D01*
X185012261Y-71937380D01*
X185107500Y-71746904D01*
X185202738Y-71651666D01*
X185393214Y-71556428D01*
X185678928Y-71556428D01*
X185869404Y-71651666D01*
X185964642Y-71746904D01*
X186059880Y-71937380D01*
X186059880Y-72508809D01*
X185964642Y-72699285D01*
X185869404Y-72794523D01*
X185678928Y-72889761D01*
X185393214Y-72889761D01*
X186917023Y-72889761D02*
X186917023Y-70889761D01*
X187774166Y-72889761D02*
X187774166Y-71842142D01*
X187678928Y-71651666D01*
X187488452Y-71556428D01*
X187202738Y-71556428D01*
X187012261Y-71651666D01*
X186917023Y-71746904D01*
X189583690Y-72889761D02*
X189583690Y-71842142D01*
X189488452Y-71651666D01*
X189297976Y-71556428D01*
X188917023Y-71556428D01*
X188726547Y-71651666D01*
X189583690Y-72794523D02*
X189393214Y-72889761D01*
X188917023Y-72889761D01*
X188726547Y-72794523D01*
X188631309Y-72604047D01*
X188631309Y-72413571D01*
X188726547Y-72223095D01*
X188917023Y-72127857D01*
X189393214Y-72127857D01*
X189583690Y-72032619D01*
X190536071Y-71556428D02*
X190536071Y-72889761D01*
X190536071Y-71746904D02*
X190631309Y-71651666D01*
X190821785Y-71556428D01*
X191107500Y-71556428D01*
X191297976Y-71651666D01*
X191393214Y-71842142D01*
X191393214Y-72889761D01*
X192345595Y-71556428D02*
X192345595Y-72889761D01*
X192345595Y-71746904D02*
X192440833Y-71651666D01*
X192631309Y-71556428D01*
X192917023Y-71556428D01*
X193107500Y-71651666D01*
X193202738Y-71842142D01*
X193202738Y-72889761D01*
X194917023Y-72794523D02*
X194726547Y-72889761D01*
X194345595Y-72889761D01*
X194155119Y-72794523D01*
X194059880Y-72604047D01*
X194059880Y-71842142D01*
X194155119Y-71651666D01*
X194345595Y-71556428D01*
X194726547Y-71556428D01*
X194917023Y-71651666D01*
X195012261Y-71842142D01*
X195012261Y-72032619D01*
X194059880Y-72223095D01*
X195774166Y-72794523D02*
X195964642Y-72889761D01*
X196345595Y-72889761D01*
X196536071Y-72794523D01*
X196631309Y-72604047D01*
X196631309Y-72508809D01*
X196536071Y-72318333D01*
X196345595Y-72223095D01*
X196059880Y-72223095D01*
X195869404Y-72127857D01*
X195774166Y-71937380D01*
X195774166Y-71842142D01*
X195869404Y-71651666D01*
X196059880Y-71556428D01*
X196345595Y-71556428D01*
X196536071Y-71651666D01*
X200155119Y-72889761D02*
X199488452Y-71937380D01*
X199012261Y-72889761D02*
X199012261Y-70889761D01*
X199774166Y-70889761D01*
X199964642Y-70985000D01*
X200059880Y-71080238D01*
X200155119Y-71270714D01*
X200155119Y-71556428D01*
X200059880Y-71746904D01*
X199964642Y-71842142D01*
X199774166Y-71937380D01*
X199012261Y-71937380D01*
X201297976Y-72889761D02*
X201107500Y-72794523D01*
X201012261Y-72699285D01*
X200917023Y-72508809D01*
X200917023Y-71937380D01*
X201012261Y-71746904D01*
X201107500Y-71651666D01*
X201297976Y-71556428D01*
X201583690Y-71556428D01*
X201774166Y-71651666D01*
X201869404Y-71746904D01*
X201964642Y-71937380D01*
X201964642Y-72508809D01*
X201869404Y-72699285D01*
X201774166Y-72794523D01*
X201583690Y-72889761D01*
X201297976Y-72889761D01*
X202536071Y-71556428D02*
X203297976Y-71556428D01*
X202821785Y-70889761D02*
X202821785Y-72604047D01*
X202917023Y-72794523D01*
X203107500Y-72889761D01*
X203297976Y-72889761D01*
X203964642Y-72889761D02*
X203964642Y-70889761D01*
X204821785Y-72889761D02*
X204821785Y-71842142D01*
X204726547Y-71651666D01*
X204536071Y-71556428D01*
X204250357Y-71556428D01*
X204059880Y-71651666D01*
X203964642Y-71746904D01*
X206536071Y-72794523D02*
X206345595Y-72889761D01*
X205964642Y-72889761D01*
X205774166Y-72794523D01*
X205678928Y-72604047D01*
X205678928Y-71842142D01*
X205774166Y-71651666D01*
X205964642Y-71556428D01*
X206345595Y-71556428D01*
X206536071Y-71651666D01*
X206631309Y-71842142D01*
X206631309Y-72032619D01*
X205678928Y-72223095D01*
X183488452Y-76144523D02*
X183774166Y-76239761D01*
X184250357Y-76239761D01*
X184440833Y-76144523D01*
X184536071Y-76049285D01*
X184631309Y-75858809D01*
X184631309Y-75668333D01*
X184536071Y-75477857D01*
X184440833Y-75382619D01*
X184250357Y-75287380D01*
X183869404Y-75192142D01*
X183678928Y-75096904D01*
X183583690Y-75001666D01*
X183488452Y-74811190D01*
X183488452Y-74620714D01*
X183583690Y-74430238D01*
X183678928Y-74335000D01*
X183869404Y-74239761D01*
X184345595Y-74239761D01*
X184631309Y-74335000D01*
X185774166Y-76239761D02*
X185583690Y-76144523D01*
X185488452Y-76049285D01*
X185393214Y-75858809D01*
X185393214Y-75287380D01*
X185488452Y-75096904D01*
X185583690Y-75001666D01*
X185774166Y-74906428D01*
X186059880Y-74906428D01*
X186250357Y-75001666D01*
X186345595Y-75096904D01*
X186440833Y-75287380D01*
X186440833Y-75858809D01*
X186345595Y-76049285D01*
X186250357Y-76144523D01*
X186059880Y-76239761D01*
X185774166Y-76239761D01*
X187202738Y-76144523D02*
X187488452Y-76239761D01*
X187964642Y-76239761D01*
X188155119Y-76144523D01*
X188250357Y-76049285D01*
X188345595Y-75858809D01*
X188345595Y-75668333D01*
X188250357Y-75477857D01*
X188155119Y-75382619D01*
X187964642Y-75287380D01*
X187583690Y-75192142D01*
X187393214Y-75096904D01*
X187297976Y-75001666D01*
X187202738Y-74811190D01*
X187202738Y-74620714D01*
X187297976Y-74430238D01*
X187393214Y-74335000D01*
X187583690Y-74239761D01*
X188059880Y-74239761D01*
X188345595Y-74335000D01*
X189964642Y-76144523D02*
X189774166Y-76239761D01*
X189393214Y-76239761D01*
X189202738Y-76144523D01*
X189107500Y-75954047D01*
X189107500Y-75192142D01*
X189202738Y-75001666D01*
X189393214Y-74906428D01*
X189774166Y-74906428D01*
X189964642Y-75001666D01*
X190059880Y-75192142D01*
X190059880Y-75382619D01*
X189107500Y-75573095D01*
X190821785Y-74430238D02*
X190917023Y-74335000D01*
X191107500Y-74239761D01*
X191583690Y-74239761D01*
X191774166Y-74335000D01*
X191869404Y-74430238D01*
X191964642Y-74620714D01*
X191964642Y-74811190D01*
X191869404Y-75096904D01*
X190726547Y-76239761D01*
X191964642Y-76239761D01*
X193202738Y-74239761D02*
X193393214Y-74239761D01*
X193583690Y-74335000D01*
X193678928Y-74430238D01*
X193774166Y-74620714D01*
X193869404Y-75001666D01*
X193869404Y-75477857D01*
X193774166Y-75858809D01*
X193678928Y-76049285D01*
X193583690Y-76144523D01*
X193393214Y-76239761D01*
X193202738Y-76239761D01*
X193012261Y-76144523D01*
X192917023Y-76049285D01*
X192821785Y-75858809D01*
X192726547Y-75477857D01*
X192726547Y-75001666D01*
X192821785Y-74620714D01*
X192917023Y-74430238D01*
X193012261Y-74335000D01*
X193202738Y-74239761D01*
X194631309Y-74430238D02*
X194726547Y-74335000D01*
X194917023Y-74239761D01*
X195393214Y-74239761D01*
X195583690Y-74335000D01*
X195678928Y-74430238D01*
X195774166Y-74620714D01*
X195774166Y-74811190D01*
X195678928Y-75096904D01*
X194536071Y-76239761D01*
X195774166Y-76239761D01*
X197678928Y-76239761D02*
X196536071Y-76239761D01*
X197107500Y-76239761D02*
X197107500Y-74239761D01*
X196917023Y-74525476D01*
X196726547Y-74715952D01*
X196536071Y-74811190D01*
X183297976Y-77589761D02*
X183964642Y-79589761D01*
X184631309Y-77589761D01*
X186345595Y-79589761D02*
X185202738Y-79589761D01*
X185774166Y-79589761D02*
X185774166Y-77589761D01*
X185583690Y-77875476D01*
X185393214Y-78065952D01*
X185202738Y-78161190D01*
X187202738Y-79399285D02*
X187297976Y-79494523D01*
X187202738Y-79589761D01*
X187107500Y-79494523D01*
X187202738Y-79399285D01*
X187202738Y-79589761D01*
X189202738Y-79589761D02*
X188059880Y-79589761D01*
X188631309Y-79589761D02*
X188631309Y-77589761D01*
X188440833Y-77875476D01*
X188250357Y-78065952D01*
X188059880Y-78161190D01*
X190059880Y-79399285D02*
X190155119Y-79494523D01*
X190059880Y-79589761D01*
X189964642Y-79494523D01*
X190059880Y-79399285D01*
X190059880Y-79589761D01*
X190059880Y-78351666D02*
X190155119Y-78446904D01*
X190059880Y-78542142D01*
X189964642Y-78446904D01*
X190059880Y-78351666D01*
X190059880Y-78542142D01*
X192917023Y-77589761D02*
X193107500Y-77589761D01*
X193297976Y-77685000D01*
X193393214Y-77780238D01*
X193488452Y-77970714D01*
X193583690Y-78351666D01*
X193583690Y-78827857D01*
X193488452Y-79208809D01*
X193393214Y-79399285D01*
X193297976Y-79494523D01*
X193107500Y-79589761D01*
X192917023Y-79589761D01*
X192726547Y-79494523D01*
X192631309Y-79399285D01*
X192536071Y-79208809D01*
X192440833Y-78827857D01*
X192440833Y-78351666D01*
X192536071Y-77970714D01*
X192631309Y-77780238D01*
X192726547Y-77685000D01*
X192917023Y-77589761D01*
X195488452Y-79589761D02*
X194345595Y-79589761D01*
X194917023Y-79589761D02*
X194917023Y-77589761D01*
X194726547Y-77875476D01*
X194536071Y-78065952D01*
X194345595Y-78161190D01*
X197774166Y-77494523D02*
X196059880Y-80065952D01*
X198345595Y-77780238D02*
X198440833Y-77685000D01*
X198631309Y-77589761D01*
X199107500Y-77589761D01*
X199297976Y-77685000D01*
X199393214Y-77780238D01*
X199488452Y-77970714D01*
X199488452Y-78161190D01*
X199393214Y-78446904D01*
X198250357Y-79589761D01*
X199488452Y-79589761D01*
X200726547Y-77589761D02*
X200917023Y-77589761D01*
X201107500Y-77685000D01*
X201202738Y-77780238D01*
X201297976Y-77970714D01*
X201393214Y-78351666D01*
X201393214Y-78827857D01*
X201297976Y-79208809D01*
X201202738Y-79399285D01*
X201107500Y-79494523D01*
X200917023Y-79589761D01*
X200726547Y-79589761D01*
X200536071Y-79494523D01*
X200440833Y-79399285D01*
X200345595Y-79208809D01*
X200250357Y-78827857D01*
X200250357Y-78351666D01*
X200345595Y-77970714D01*
X200440833Y-77780238D01*
X200536071Y-77685000D01*
X200726547Y-77589761D01*
X202155119Y-77780238D02*
X202250357Y-77685000D01*
X202440833Y-77589761D01*
X202917023Y-77589761D01*
X203107500Y-77685000D01*
X203202738Y-77780238D01*
X203297976Y-77970714D01*
X203297976Y-78161190D01*
X203202738Y-78446904D01*
X202059880Y-79589761D01*
X203297976Y-79589761D01*
X204059880Y-77780238D02*
X204155119Y-77685000D01*
X204345595Y-77589761D01*
X204821785Y-77589761D01*
X205012261Y-77685000D01*
X205107500Y-77780238D01*
X205202738Y-77970714D01*
X205202738Y-78161190D01*
X205107500Y-78446904D01*
X203964642Y-79589761D01*
X205202738Y-79589761D01*
D10*
X227965000Y-83185000D02*
X227965000Y-66040000D01*
X182245000Y-66040000D02*
X182245000Y-83185000D01*
X217170000Y-116205000D02*
X217170000Y-141605000D01*
X172085000Y-116205000D02*
X217170000Y-116205000D01*
X172085000Y-141605000D02*
X172085000Y-116205000D01*
X106680000Y-135890000D02*
X106680000Y-141605000D01*
X161925000Y-135890000D02*
X106680000Y-135890000D01*
X161925000Y-136525000D02*
X161925000Y-135890000D01*
X161925000Y-137160000D02*
X161925000Y-136525000D01*
X161925000Y-141605000D02*
X161925000Y-137160000D01*
X97790000Y-57150000D02*
X97790000Y-105410000D01*
D11*
X73395000Y-102762857D02*
X74537857Y-102762857D01*
X74537857Y-103191428D02*
X73395000Y-103191428D01*
X76895000Y-102762857D02*
X77109285Y-102834285D01*
X77180714Y-102905714D01*
X77252142Y-103048571D01*
X77252142Y-103262857D01*
X77180714Y-103405714D01*
X77109285Y-103477142D01*
X76966428Y-103548571D01*
X76395000Y-103548571D01*
X76395000Y-102048571D01*
X76895000Y-102048571D01*
X77037857Y-102120000D01*
X77109285Y-102191428D01*
X77180714Y-102334285D01*
X77180714Y-102477142D01*
X77109285Y-102620000D01*
X77037857Y-102691428D01*
X76895000Y-102762857D01*
X76395000Y-102762857D01*
X78537857Y-103548571D02*
X78537857Y-102762857D01*
X78466428Y-102620000D01*
X78323571Y-102548571D01*
X78037857Y-102548571D01*
X77895000Y-102620000D01*
X78537857Y-103477142D02*
X78395000Y-103548571D01*
X78037857Y-103548571D01*
X77895000Y-103477142D01*
X77823571Y-103334285D01*
X77823571Y-103191428D01*
X77895000Y-103048571D01*
X78037857Y-102977142D01*
X78395000Y-102977142D01*
X78537857Y-102905714D01*
X79466428Y-103548571D02*
X79323571Y-103477142D01*
X79252142Y-103405714D01*
X79180714Y-103262857D01*
X79180714Y-102834285D01*
X79252142Y-102691428D01*
X79323571Y-102620000D01*
X79466428Y-102548571D01*
X79680714Y-102548571D01*
X79823571Y-102620000D01*
X79895000Y-102691428D01*
X79966428Y-102834285D01*
X79966428Y-103262857D01*
X79895000Y-103405714D01*
X79823571Y-103477142D01*
X79680714Y-103548571D01*
X79466428Y-103548571D01*
X80609285Y-103548571D02*
X80609285Y-102548571D01*
X80609285Y-102834285D02*
X80680714Y-102691428D01*
X80752142Y-102620000D01*
X80895000Y-102548571D01*
X81037857Y-102548571D01*
X82180714Y-103548571D02*
X82180714Y-102048571D01*
X82180714Y-103477142D02*
X82037857Y-103548571D01*
X81752142Y-103548571D01*
X81609285Y-103477142D01*
X81537857Y-103405714D01*
X81466428Y-103262857D01*
X81466428Y-102834285D01*
X81537857Y-102691428D01*
X81609285Y-102620000D01*
X81752142Y-102548571D01*
X82037857Y-102548571D01*
X82180714Y-102620000D01*
X84823571Y-102120000D02*
X84680714Y-102048571D01*
X84466428Y-102048571D01*
X84252142Y-102120000D01*
X84109285Y-102262857D01*
X84037857Y-102405714D01*
X83966428Y-102691428D01*
X83966428Y-102905714D01*
X84037857Y-103191428D01*
X84109285Y-103334285D01*
X84252142Y-103477142D01*
X84466428Y-103548571D01*
X84609285Y-103548571D01*
X84823571Y-103477142D01*
X84895000Y-103405714D01*
X84895000Y-102905714D01*
X84609285Y-102905714D01*
X85537857Y-103548571D02*
X85537857Y-102048571D01*
X86395000Y-103548571D01*
X86395000Y-102048571D01*
X87109285Y-103548571D02*
X87109285Y-102048571D01*
X87466428Y-102048571D01*
X87680714Y-102120000D01*
X87823571Y-102262857D01*
X87895000Y-102405714D01*
X87966428Y-102691428D01*
X87966428Y-102905714D01*
X87895000Y-103191428D01*
X87823571Y-103334285D01*
X87680714Y-103477142D01*
X87466428Y-103548571D01*
X87109285Y-103548571D01*
D10*
X145415000Y-74930000D02*
X142875000Y-72390000D01*
D12*
X126699285Y-70977142D02*
X126032619Y-70977142D01*
X126032619Y-72024761D02*
X126032619Y-70024761D01*
X126985000Y-70024761D01*
X128413571Y-70977142D02*
X128699285Y-71072380D01*
X128794523Y-71167619D01*
X128889761Y-71358095D01*
X128889761Y-71643809D01*
X128794523Y-71834285D01*
X128699285Y-71929523D01*
X128508809Y-72024761D01*
X127746904Y-72024761D01*
X127746904Y-70024761D01*
X128413571Y-70024761D01*
X128604047Y-70120000D01*
X128699285Y-70215238D01*
X128794523Y-70405714D01*
X128794523Y-70596190D01*
X128699285Y-70786666D01*
X128604047Y-70881904D01*
X128413571Y-70977142D01*
X127746904Y-70977142D01*
X129270714Y-72215238D02*
X130794523Y-72215238D01*
X131651666Y-70024761D02*
X132032619Y-70024761D01*
X132223095Y-70120000D01*
X132413571Y-70310476D01*
X132508809Y-70691428D01*
X132508809Y-71358095D01*
X132413571Y-71739047D01*
X132223095Y-71929523D01*
X132032619Y-72024761D01*
X131651666Y-72024761D01*
X131461190Y-71929523D01*
X131270714Y-71739047D01*
X131175476Y-71358095D01*
X131175476Y-70691428D01*
X131270714Y-70310476D01*
X131461190Y-70120000D01*
X131651666Y-70024761D01*
X133365952Y-70691428D02*
X133365952Y-72691428D01*
X133365952Y-70786666D02*
X133556428Y-70691428D01*
X133937380Y-70691428D01*
X134127857Y-70786666D01*
X134223095Y-70881904D01*
X134318333Y-71072380D01*
X134318333Y-71643809D01*
X134223095Y-71834285D01*
X134127857Y-71929523D01*
X133937380Y-72024761D01*
X133556428Y-72024761D01*
X133365952Y-71929523D01*
X134699285Y-72215238D02*
X136223095Y-72215238D01*
X136604047Y-71453333D02*
X137556428Y-71453333D01*
X136413571Y-72024761D02*
X137080238Y-70024761D01*
X137746904Y-72024761D01*
X138413571Y-72024761D02*
X138413571Y-70691428D01*
X138413571Y-70881904D02*
X138508809Y-70786666D01*
X138699285Y-70691428D01*
X138985000Y-70691428D01*
X139175476Y-70786666D01*
X139270714Y-70977142D01*
X139270714Y-72024761D01*
X139270714Y-70977142D02*
X139365952Y-70786666D01*
X139556428Y-70691428D01*
X139842142Y-70691428D01*
X140032619Y-70786666D01*
X140127857Y-70977142D01*
X140127857Y-72024761D01*
X141080238Y-70691428D02*
X141080238Y-72691428D01*
X141080238Y-70786666D02*
X141270714Y-70691428D01*
X141651666Y-70691428D01*
X141842142Y-70786666D01*
X141937380Y-70881904D01*
X142032619Y-71072380D01*
X142032619Y-71643809D01*
X141937380Y-71834285D01*
X141842142Y-71929523D01*
X141651666Y-72024761D01*
X141270714Y-72024761D01*
X141080238Y-71929523D01*
D10*
X140335000Y-55880000D02*
X142875000Y-55880000D01*
D12*
X145003571Y-56975238D02*
X144813095Y-56880000D01*
X144622619Y-56689523D01*
X144336904Y-56403809D01*
X144146428Y-56308571D01*
X143955952Y-56308571D01*
X144051190Y-56784761D02*
X143860714Y-56689523D01*
X143670238Y-56499047D01*
X143575000Y-56118095D01*
X143575000Y-55451428D01*
X143670238Y-55070476D01*
X143860714Y-54880000D01*
X144051190Y-54784761D01*
X144432142Y-54784761D01*
X144622619Y-54880000D01*
X144813095Y-55070476D01*
X144908333Y-55451428D01*
X144908333Y-56118095D01*
X144813095Y-56499047D01*
X144622619Y-56689523D01*
X144432142Y-56784761D01*
X144051190Y-56784761D01*
X146813095Y-56784761D02*
X145670238Y-56784761D01*
X146241666Y-56784761D02*
X146241666Y-54784761D01*
X146051190Y-55070476D01*
X145860714Y-55260952D01*
X145670238Y-55356190D01*
X147194047Y-56975238D02*
X148717857Y-56975238D01*
X150241666Y-54880000D02*
X150051190Y-54784761D01*
X149765476Y-54784761D01*
X149479761Y-54880000D01*
X149289285Y-55070476D01*
X149194047Y-55260952D01*
X149098809Y-55641904D01*
X149098809Y-55927619D01*
X149194047Y-56308571D01*
X149289285Y-56499047D01*
X149479761Y-56689523D01*
X149765476Y-56784761D01*
X149955952Y-56784761D01*
X150241666Y-56689523D01*
X150336904Y-56594285D01*
X150336904Y-55927619D01*
X149955952Y-55927619D01*
X152051190Y-56784761D02*
X152051190Y-55737142D01*
X151955952Y-55546666D01*
X151765476Y-55451428D01*
X151384523Y-55451428D01*
X151194047Y-55546666D01*
X152051190Y-56689523D02*
X151860714Y-56784761D01*
X151384523Y-56784761D01*
X151194047Y-56689523D01*
X151098809Y-56499047D01*
X151098809Y-56308571D01*
X151194047Y-56118095D01*
X151384523Y-56022857D01*
X151860714Y-56022857D01*
X152051190Y-55927619D01*
X152717857Y-55451428D02*
X153479761Y-55451428D01*
X153003571Y-54784761D02*
X153003571Y-56499047D01*
X153098809Y-56689523D01*
X153289285Y-56784761D01*
X153479761Y-56784761D01*
X154908333Y-56689523D02*
X154717857Y-56784761D01*
X154336904Y-56784761D01*
X154146428Y-56689523D01*
X154051190Y-56499047D01*
X154051190Y-55737142D01*
X154146428Y-55546666D01*
X154336904Y-55451428D01*
X154717857Y-55451428D01*
X154908333Y-55546666D01*
X155003571Y-55737142D01*
X155003571Y-55927619D01*
X154051190Y-56118095D01*
X155384523Y-56975238D02*
X156908333Y-56975238D01*
X157098809Y-54784761D02*
X157765476Y-56784761D01*
X158432142Y-54784761D01*
X159384523Y-56784761D02*
X159194047Y-56689523D01*
X159098809Y-56594285D01*
X159003571Y-56403809D01*
X159003571Y-55832380D01*
X159098809Y-55641904D01*
X159194047Y-55546666D01*
X159384523Y-55451428D01*
X159670238Y-55451428D01*
X159860714Y-55546666D01*
X159955952Y-55641904D01*
X160051190Y-55832380D01*
X160051190Y-56403809D01*
X159955952Y-56594285D01*
X159860714Y-56689523D01*
X159670238Y-56784761D01*
X159384523Y-56784761D01*
X161194047Y-56784761D02*
X161003571Y-56689523D01*
X160908333Y-56499047D01*
X160908333Y-54784761D01*
X161670238Y-55451428D02*
X162432142Y-55451428D01*
X161955952Y-54784761D02*
X161955952Y-56499047D01*
X162051190Y-56689523D01*
X162241666Y-56784761D01*
X162432142Y-56784761D01*
X163955952Y-56784761D02*
X163955952Y-55737142D01*
X163860714Y-55546666D01*
X163670238Y-55451428D01*
X163289285Y-55451428D01*
X163098809Y-55546666D01*
X163955952Y-56689523D02*
X163765476Y-56784761D01*
X163289285Y-56784761D01*
X163098809Y-56689523D01*
X163003571Y-56499047D01*
X163003571Y-56308571D01*
X163098809Y-56118095D01*
X163289285Y-56022857D01*
X163765476Y-56022857D01*
X163955952Y-55927619D01*
X165765476Y-55451428D02*
X165765476Y-57070476D01*
X165670238Y-57260952D01*
X165575000Y-57356190D01*
X165384523Y-57451428D01*
X165098809Y-57451428D01*
X164908333Y-57356190D01*
X165765476Y-56689523D02*
X165575000Y-56784761D01*
X165194047Y-56784761D01*
X165003571Y-56689523D01*
X164908333Y-56594285D01*
X164813095Y-56403809D01*
X164813095Y-55832380D01*
X164908333Y-55641904D01*
X165003571Y-55546666D01*
X165194047Y-55451428D01*
X165575000Y-55451428D01*
X165765476Y-55546666D01*
X167479761Y-56689523D02*
X167289285Y-56784761D01*
X166908333Y-56784761D01*
X166717857Y-56689523D01*
X166622619Y-56499047D01*
X166622619Y-55737142D01*
X166717857Y-55546666D01*
X166908333Y-55451428D01*
X167289285Y-55451428D01*
X167479761Y-55546666D01*
X167575000Y-55737142D01*
X167575000Y-55927619D01*
X166622619Y-56118095D01*
D10*
X136525000Y-97155000D02*
X136525000Y-98425000D01*
D12*
X122444761Y-96154761D02*
X121778095Y-95202380D01*
X121301904Y-96154761D02*
X121301904Y-94154761D01*
X122063809Y-94154761D01*
X122254285Y-94250000D01*
X122349523Y-94345238D01*
X122444761Y-94535714D01*
X122444761Y-94821428D01*
X122349523Y-95011904D01*
X122254285Y-95107142D01*
X122063809Y-95202380D01*
X121301904Y-95202380D01*
X124063809Y-96059523D02*
X123873333Y-96154761D01*
X123492380Y-96154761D01*
X123301904Y-96059523D01*
X123206666Y-95869047D01*
X123206666Y-95107142D01*
X123301904Y-94916666D01*
X123492380Y-94821428D01*
X123873333Y-94821428D01*
X124063809Y-94916666D01*
X124159047Y-95107142D01*
X124159047Y-95297619D01*
X123206666Y-95488095D01*
X124730476Y-94821428D02*
X125492380Y-94821428D01*
X125016190Y-96154761D02*
X125016190Y-94440476D01*
X125111428Y-94250000D01*
X125301904Y-94154761D01*
X125492380Y-94154761D01*
X125682857Y-96345238D02*
X127206666Y-96345238D01*
X127397142Y-94154761D02*
X128063809Y-96154761D01*
X128730476Y-94154761D01*
X129682857Y-96154761D02*
X129492380Y-96059523D01*
X129397142Y-95964285D01*
X129301904Y-95773809D01*
X129301904Y-95202380D01*
X129397142Y-95011904D01*
X129492380Y-94916666D01*
X129682857Y-94821428D01*
X129968571Y-94821428D01*
X130159047Y-94916666D01*
X130254285Y-95011904D01*
X130349523Y-95202380D01*
X130349523Y-95773809D01*
X130254285Y-95964285D01*
X130159047Y-96059523D01*
X129968571Y-96154761D01*
X129682857Y-96154761D01*
X131492380Y-96154761D02*
X131301904Y-96059523D01*
X131206666Y-95869047D01*
X131206666Y-94154761D01*
X131968571Y-94821428D02*
X132730476Y-94821428D01*
X132254285Y-94154761D02*
X132254285Y-95869047D01*
X132349523Y-96059523D01*
X132540000Y-96154761D01*
X132730476Y-96154761D01*
X134254285Y-96154761D02*
X134254285Y-95107142D01*
X134159047Y-94916666D01*
X133968571Y-94821428D01*
X133587619Y-94821428D01*
X133397142Y-94916666D01*
X134254285Y-96059523D02*
X134063809Y-96154761D01*
X133587619Y-96154761D01*
X133397142Y-96059523D01*
X133301904Y-95869047D01*
X133301904Y-95678571D01*
X133397142Y-95488095D01*
X133587619Y-95392857D01*
X134063809Y-95392857D01*
X134254285Y-95297619D01*
X136063809Y-94821428D02*
X136063809Y-96440476D01*
X135968571Y-96630952D01*
X135873333Y-96726190D01*
X135682857Y-96821428D01*
X135397142Y-96821428D01*
X135206666Y-96726190D01*
X136063809Y-96059523D02*
X135873333Y-96154761D01*
X135492380Y-96154761D01*
X135301904Y-96059523D01*
X135206666Y-95964285D01*
X135111428Y-95773809D01*
X135111428Y-95202380D01*
X135206666Y-95011904D01*
X135301904Y-94916666D01*
X135492380Y-94821428D01*
X135873333Y-94821428D01*
X136063809Y-94916666D01*
X137778095Y-96059523D02*
X137587619Y-96154761D01*
X137206666Y-96154761D01*
X137016190Y-96059523D01*
X136920952Y-95869047D01*
X136920952Y-95107142D01*
X137016190Y-94916666D01*
X137206666Y-94821428D01*
X137587619Y-94821428D01*
X137778095Y-94916666D01*
X137873333Y-95107142D01*
X137873333Y-95297619D01*
X136920952Y-95488095D01*
D10*
X130810000Y-78105000D02*
X130810000Y-85725000D01*
D12*
X126365714Y-75422142D02*
X125699047Y-75422142D01*
X125699047Y-76469761D02*
X125699047Y-74469761D01*
X126651428Y-74469761D01*
X128080000Y-75422142D02*
X128365714Y-75517380D01*
X128460952Y-75612619D01*
X128556190Y-75803095D01*
X128556190Y-76088809D01*
X128460952Y-76279285D01*
X128365714Y-76374523D01*
X128175238Y-76469761D01*
X127413333Y-76469761D01*
X127413333Y-74469761D01*
X128080000Y-74469761D01*
X128270476Y-74565000D01*
X128365714Y-74660238D01*
X128460952Y-74850714D01*
X128460952Y-75041190D01*
X128365714Y-75231666D01*
X128270476Y-75326904D01*
X128080000Y-75422142D01*
X127413333Y-75422142D01*
X128937142Y-76660238D02*
X130460952Y-76660238D01*
X130841904Y-76374523D02*
X131127619Y-76469761D01*
X131603809Y-76469761D01*
X131794285Y-76374523D01*
X131889523Y-76279285D01*
X131984761Y-76088809D01*
X131984761Y-75898333D01*
X131889523Y-75707857D01*
X131794285Y-75612619D01*
X131603809Y-75517380D01*
X131222857Y-75422142D01*
X131032380Y-75326904D01*
X130937142Y-75231666D01*
X130841904Y-75041190D01*
X130841904Y-74850714D01*
X130937142Y-74660238D01*
X131032380Y-74565000D01*
X131222857Y-74469761D01*
X131699047Y-74469761D01*
X131984761Y-74565000D01*
X132841904Y-76469761D02*
X132841904Y-74469761D01*
X133699047Y-76469761D02*
X133699047Y-75422142D01*
X133603809Y-75231666D01*
X133413333Y-75136428D01*
X133127619Y-75136428D01*
X132937142Y-75231666D01*
X132841904Y-75326904D01*
X135508571Y-75136428D02*
X135508571Y-76469761D01*
X134651428Y-75136428D02*
X134651428Y-76184047D01*
X134746666Y-76374523D01*
X134937142Y-76469761D01*
X135222857Y-76469761D01*
X135413333Y-76374523D01*
X135508571Y-76279285D01*
X136460952Y-75136428D02*
X136460952Y-76469761D01*
X136460952Y-75326904D02*
X136556190Y-75231666D01*
X136746666Y-75136428D01*
X137032380Y-75136428D01*
X137222857Y-75231666D01*
X137318095Y-75422142D01*
X137318095Y-76469761D01*
X137984761Y-75136428D02*
X138746666Y-75136428D01*
X138270476Y-74469761D02*
X138270476Y-76184047D01*
X138365714Y-76374523D01*
X138556190Y-76469761D01*
X138746666Y-76469761D01*
X202914761Y-62809761D02*
X203105238Y-62809761D01*
X203295714Y-62905000D01*
X203390952Y-63000238D01*
X203486190Y-63190714D01*
X203581428Y-63571666D01*
X203581428Y-64047857D01*
X203486190Y-64428809D01*
X203390952Y-64619285D01*
X203295714Y-64714523D01*
X203105238Y-64809761D01*
X202914761Y-64809761D01*
X202724285Y-64714523D01*
X202629047Y-64619285D01*
X202533809Y-64428809D01*
X202438571Y-64047857D01*
X202438571Y-63571666D01*
X202533809Y-63190714D01*
X202629047Y-63000238D01*
X202724285Y-62905000D01*
X202914761Y-62809761D01*
X204438571Y-64047857D02*
X205962380Y-64047857D01*
X207962380Y-64809761D02*
X206819523Y-64809761D01*
X207390952Y-64809761D02*
X207390952Y-62809761D01*
X207200476Y-63095476D01*
X207010000Y-63285952D01*
X206819523Y-63381190D01*
X208724285Y-63000238D02*
X208819523Y-62905000D01*
X209010000Y-62809761D01*
X209486190Y-62809761D01*
X209676666Y-62905000D01*
X209771904Y-63000238D01*
X209867142Y-63190714D01*
X209867142Y-63381190D01*
X209771904Y-63666904D01*
X208629047Y-64809761D01*
X209867142Y-64809761D01*
X210438571Y-62809761D02*
X211105238Y-64809761D01*
X211771904Y-62809761D01*
D10*
X180975000Y-93980000D02*
X187325000Y-93980000D01*
X82550000Y-65405000D02*
G75*
G03*
X82550000Y-65405000I-5080000J0D01*
G01*
X80645000Y-65405000D02*
X74295000Y-65405000D01*
X77470000Y-68580000D02*
X77470000Y-62230000D01*
X74803333Y-94135000D02*
X74470000Y-93968333D01*
X73970000Y-93968333D01*
X73470000Y-94135000D01*
X73136666Y-94468333D01*
X72970000Y-94801666D01*
X72803333Y-95468333D01*
X72803333Y-95968333D01*
X72970000Y-96635000D01*
X73136666Y-96968333D01*
X73470000Y-97301666D01*
X73970000Y-97468333D01*
X74303333Y-97468333D01*
X74803333Y-97301666D01*
X74970000Y-97135000D01*
X74970000Y-95968333D01*
X74303333Y-95968333D01*
X76470000Y-97468333D02*
X76470000Y-93968333D01*
X78470000Y-97468333D01*
X78470000Y-93968333D01*
X80136666Y-97468333D02*
X80136666Y-93968333D01*
X80970000Y-93968333D01*
X81470000Y-94135000D01*
X81803333Y-94468333D01*
X81970000Y-94801666D01*
X82136666Y-95468333D01*
X82136666Y-95968333D01*
X81970000Y-96635000D01*
X81803333Y-96968333D01*
X81470000Y-97301666D01*
X80970000Y-97468333D01*
X80136666Y-97468333D01*
X88075000Y-56193333D02*
X86408333Y-56193333D01*
X86408333Y-52693333D01*
X89908333Y-52693333D02*
X90575000Y-52693333D01*
X90908333Y-52860000D01*
X91241666Y-53193333D01*
X91408333Y-53860000D01*
X91408333Y-55026666D01*
X91241666Y-55693333D01*
X90908333Y-56026666D01*
X90575000Y-56193333D01*
X89908333Y-56193333D01*
X89575000Y-56026666D01*
X89241666Y-55693333D01*
X89075000Y-55026666D01*
X89075000Y-53860000D01*
X89241666Y-53193333D01*
X89575000Y-52860000D01*
X89908333Y-52693333D01*
X92741666Y-55193333D02*
X94408333Y-55193333D01*
X92408333Y-56193333D02*
X93575000Y-52693333D01*
X94741666Y-56193333D01*
X95908333Y-56193333D02*
X95908333Y-52693333D01*
X96741666Y-52693333D01*
X97241666Y-52860000D01*
X97575000Y-53193333D01*
X97741666Y-53526666D01*
X97908333Y-54193333D01*
X97908333Y-54693333D01*
X97741666Y-55360000D01*
X97575000Y-55693333D01*
X97241666Y-56026666D01*
X96741666Y-56193333D01*
X95908333Y-56193333D01*
X71120000Y-57150000D02*
X97790000Y-57150000D01*
X71120000Y-105410000D02*
X71120000Y-57150000D01*
X97790000Y-105410000D02*
X71120000Y-105410000D01*
X135255000Y-128270000D02*
X135255000Y-115570000D01*
X70485000Y-115570000D02*
X118110000Y-115570000D01*
X70485000Y-128270000D02*
X70485000Y-115570000D01*
X135255000Y-128270000D02*
X70485000Y-128270000D01*
X171450000Y-48895000D02*
X215265000Y-48895000D01*
X171450000Y-66040000D02*
X171450000Y-48895000D01*
X227965000Y-66040000D02*
X171450000Y-66040000D01*
X198228333Y-52953333D02*
X199895000Y-52953333D01*
X197895000Y-53953333D02*
X199061666Y-50453333D01*
X200228333Y-53953333D01*
X201395000Y-51620000D02*
X201395000Y-53953333D01*
X201395000Y-51953333D02*
X201561666Y-51786666D01*
X201895000Y-51620000D01*
X202395000Y-51620000D01*
X202728333Y-51786666D01*
X202895000Y-52120000D01*
X202895000Y-53953333D01*
X206061666Y-53953333D02*
X206061666Y-52120000D01*
X205895000Y-51786666D01*
X205561666Y-51620000D01*
X204895000Y-51620000D01*
X204561666Y-51786666D01*
X206061666Y-53786666D02*
X205728333Y-53953333D01*
X204895000Y-53953333D01*
X204561666Y-53786666D01*
X204395000Y-53453333D01*
X204395000Y-53120000D01*
X204561666Y-52786666D01*
X204895000Y-52620000D01*
X205728333Y-52620000D01*
X206061666Y-52453333D01*
X208228333Y-53953333D02*
X207895000Y-53786666D01*
X207728333Y-53453333D01*
X207728333Y-50453333D01*
X210061666Y-53953333D02*
X209728333Y-53786666D01*
X209561666Y-53620000D01*
X209395000Y-53286666D01*
X209395000Y-52286666D01*
X209561666Y-51953333D01*
X209728333Y-51786666D01*
X210061666Y-51620000D01*
X210561666Y-51620000D01*
X210895000Y-51786666D01*
X211061666Y-51953333D01*
X211228333Y-52286666D01*
X211228333Y-53286666D01*
X211061666Y-53620000D01*
X210895000Y-53786666D01*
X210561666Y-53953333D01*
X210061666Y-53953333D01*
X214228333Y-51620000D02*
X214228333Y-54453333D01*
X214061666Y-54786666D01*
X213895000Y-54953333D01*
X213561666Y-55120000D01*
X213061666Y-55120000D01*
X212728333Y-54953333D01*
X214228333Y-53786666D02*
X213895000Y-53953333D01*
X213228333Y-53953333D01*
X212895000Y-53786666D01*
X212728333Y-53620000D01*
X212561666Y-53286666D01*
X212561666Y-52286666D01*
X212728333Y-51953333D01*
X212895000Y-51786666D01*
X213228333Y-51620000D01*
X213895000Y-51620000D01*
X214228333Y-51786666D01*
X191395000Y-59370000D02*
X191228333Y-59536666D01*
X190728333Y-59703333D01*
X190395000Y-59703333D01*
X189895000Y-59536666D01*
X189561666Y-59203333D01*
X189395000Y-58870000D01*
X189228333Y-58203333D01*
X189228333Y-57703333D01*
X189395000Y-57036666D01*
X189561666Y-56703333D01*
X189895000Y-56370000D01*
X190395000Y-56203333D01*
X190728333Y-56203333D01*
X191228333Y-56370000D01*
X191395000Y-56536666D01*
X194395000Y-57370000D02*
X194395000Y-59703333D01*
X192895000Y-57370000D02*
X192895000Y-59203333D01*
X193061666Y-59536666D01*
X193395000Y-59703333D01*
X193895000Y-59703333D01*
X194228333Y-59536666D01*
X194395000Y-59370000D01*
X196061666Y-59703333D02*
X196061666Y-57370000D01*
X196061666Y-58036666D02*
X196228333Y-57703333D01*
X196395000Y-57536666D01*
X196728333Y-57370000D01*
X197061666Y-57370000D01*
X198228333Y-59703333D02*
X198228333Y-57370000D01*
X198228333Y-58036666D02*
X198395000Y-57703333D01*
X198561666Y-57536666D01*
X198895000Y-57370000D01*
X199228333Y-57370000D01*
X201728333Y-59536666D02*
X201395000Y-59703333D01*
X200728333Y-59703333D01*
X200395000Y-59536666D01*
X200228333Y-59203333D01*
X200228333Y-57870000D01*
X200395000Y-57536666D01*
X200728333Y-57370000D01*
X201395000Y-57370000D01*
X201728333Y-57536666D01*
X201895000Y-57870000D01*
X201895000Y-58203333D01*
X200228333Y-58536666D01*
X203395000Y-57370000D02*
X203395000Y-59703333D01*
X203395000Y-57703333D02*
X203561666Y-57536666D01*
X203895000Y-57370000D01*
X204395000Y-57370000D01*
X204728333Y-57536666D01*
X204895000Y-57870000D01*
X204895000Y-59703333D01*
X206061666Y-57370000D02*
X207395000Y-57370000D01*
X206561666Y-56203333D02*
X206561666Y-59203333D01*
X206728333Y-59536666D01*
X207061666Y-59703333D01*
X207395000Y-59703333D01*
X211061666Y-59536666D02*
X211561666Y-59703333D01*
X212395000Y-59703333D01*
X212728333Y-59536666D01*
X212895000Y-59370000D01*
X213061666Y-59036666D01*
X213061666Y-58703333D01*
X212895000Y-58370000D01*
X212728333Y-58203333D01*
X212395000Y-58036666D01*
X211728333Y-57870000D01*
X211395000Y-57703333D01*
X211228333Y-57536666D01*
X211061666Y-57203333D01*
X211061666Y-56870000D01*
X211228333Y-56536666D01*
X211395000Y-56370000D01*
X211728333Y-56203333D01*
X212561666Y-56203333D01*
X213061666Y-56370000D01*
X214561666Y-59703333D02*
X214561666Y-57370000D01*
X214561666Y-56203333D02*
X214395000Y-56370000D01*
X214561666Y-56536666D01*
X214728333Y-56370000D01*
X214561666Y-56203333D01*
X214561666Y-56536666D01*
X217728333Y-57370000D02*
X217728333Y-60203333D01*
X217561666Y-60536666D01*
X217395000Y-60703333D01*
X217061666Y-60870000D01*
X216561666Y-60870000D01*
X216228333Y-60703333D01*
X217728333Y-59536666D02*
X217395000Y-59703333D01*
X216728333Y-59703333D01*
X216395000Y-59536666D01*
X216228333Y-59370000D01*
X216061666Y-59036666D01*
X216061666Y-58036666D01*
X216228333Y-57703333D01*
X216395000Y-57536666D01*
X216728333Y-57370000D01*
X217395000Y-57370000D01*
X217728333Y-57536666D01*
X219395000Y-57370000D02*
X219395000Y-59703333D01*
X219395000Y-57703333D02*
X219561666Y-57536666D01*
X219895000Y-57370000D01*
X220395000Y-57370000D01*
X220728333Y-57536666D01*
X220895000Y-57870000D01*
X220895000Y-59703333D01*
X224061666Y-59703333D02*
X224061666Y-57870000D01*
X223895000Y-57536666D01*
X223561666Y-57370000D01*
X222895000Y-57370000D01*
X222561666Y-57536666D01*
X224061666Y-59536666D02*
X223728333Y-59703333D01*
X222895000Y-59703333D01*
X222561666Y-59536666D01*
X222395000Y-59203333D01*
X222395000Y-58870000D01*
X222561666Y-58536666D01*
X222895000Y-58370000D01*
X223728333Y-58370000D01*
X224061666Y-58203333D01*
X226228333Y-59703333D02*
X225895000Y-59536666D01*
X225728333Y-59203333D01*
X225728333Y-56203333D01*
X179070000Y-88265000D02*
X173355000Y-93980000D01*
X173355000Y-93980000D02*
X179070000Y-99695000D01*
X170180000Y-93980000D02*
X173355000Y-93980000D01*
X180150000Y-90855000D02*
X181316666Y-90855000D01*
X181816666Y-92688333D02*
X180150000Y-92688333D01*
X180150000Y-89188333D01*
X181816666Y-89188333D01*
X182983333Y-92688333D02*
X184816666Y-90355000D01*
X182983333Y-90355000D02*
X184816666Y-92688333D01*
X185650000Y-90355000D02*
X186983333Y-90355000D01*
X186150000Y-89188333D02*
X186150000Y-92188333D01*
X186316666Y-92521666D01*
X186650000Y-92688333D01*
X186983333Y-92688333D01*
X188150000Y-92355000D02*
X188316666Y-92521666D01*
X188150000Y-92688333D01*
X187983333Y-92521666D01*
X188150000Y-92355000D01*
X188150000Y-92688333D01*
X181316666Y-98271666D02*
X181816666Y-98438333D01*
X182650000Y-98438333D01*
X182983333Y-98271666D01*
X183150000Y-98105000D01*
X183316666Y-97771666D01*
X183316666Y-97438333D01*
X183150000Y-97105000D01*
X182983333Y-96938333D01*
X182650000Y-96771666D01*
X181983333Y-96605000D01*
X181650000Y-96438333D01*
X181483333Y-96271666D01*
X181316666Y-95938333D01*
X181316666Y-95605000D01*
X181483333Y-95271666D01*
X181650000Y-95105000D01*
X181983333Y-94938333D01*
X182816666Y-94938333D01*
X183316666Y-95105000D01*
X184816666Y-98438333D02*
X184816666Y-94938333D01*
X184816666Y-96605000D02*
X186816666Y-96605000D01*
X186816666Y-98438333D02*
X186816666Y-94938333D01*
X189865000Y-100965000D02*
X171450000Y-100965000D01*
X189865000Y-86995000D02*
X189865000Y-100965000D01*
X154305000Y-86995000D02*
X189865000Y-86995000D01*
X154305000Y-100965000D02*
X154305000Y-86995000D01*
X171450000Y-100965000D02*
X160655000Y-100965000D01*
X160020000Y-93980000D02*
X170180000Y-93980000D01*
X162401666Y-95873333D02*
X163068333Y-95873333D01*
X163401666Y-96040000D01*
X163735000Y-96373333D01*
X163901666Y-97040000D01*
X163901666Y-98206666D01*
X163735000Y-98873333D01*
X163401666Y-99206666D01*
X163068333Y-99373333D01*
X162401666Y-99373333D01*
X162068333Y-99206666D01*
X161735000Y-98873333D01*
X161568333Y-98206666D01*
X161568333Y-97040000D01*
X161735000Y-96373333D01*
X162068333Y-96040000D01*
X162401666Y-95873333D01*
X166568333Y-97540000D02*
X165401666Y-97540000D01*
X165401666Y-99373333D02*
X165401666Y-95873333D01*
X167068333Y-95873333D01*
X169568333Y-97540000D02*
X168401666Y-97540000D01*
X168401666Y-99373333D02*
X168401666Y-95873333D01*
X170068333Y-95873333D01*
X162298333Y-88253333D02*
X162965000Y-88253333D01*
X163298333Y-88420000D01*
X163631666Y-88753333D01*
X163798333Y-89420000D01*
X163798333Y-90586666D01*
X163631666Y-91253333D01*
X163298333Y-91586666D01*
X162965000Y-91753333D01*
X162298333Y-91753333D01*
X161965000Y-91586666D01*
X161631666Y-91253333D01*
X161465000Y-90586666D01*
X161465000Y-89420000D01*
X161631666Y-88753333D01*
X161965000Y-88420000D01*
X162298333Y-88253333D01*
X165298333Y-91753333D02*
X165298333Y-88253333D01*
X167298333Y-91753333D01*
X167298333Y-88253333D01*
X181610000Y-102235000D02*
X160655000Y-102235000D01*
X181610000Y-109220000D02*
X181610000Y-102235000D01*
X154305000Y-116205000D02*
X154305000Y-102235000D01*
X181610000Y-116205000D02*
X154305000Y-116205000D01*
X181610000Y-109220000D02*
X181610000Y-116205000D01*
X160020000Y-109220000D02*
X181610000Y-109220000D01*
X162775000Y-104128333D02*
X161108333Y-104128333D01*
X160941666Y-105795000D01*
X161108333Y-105628333D01*
X161441666Y-105461666D01*
X162275000Y-105461666D01*
X162608333Y-105628333D01*
X162775000Y-105795000D01*
X162941666Y-106128333D01*
X162941666Y-106961666D01*
X162775000Y-107295000D01*
X162608333Y-107461666D01*
X162275000Y-107628333D01*
X161441666Y-107628333D01*
X161108333Y-107461666D01*
X160941666Y-107295000D01*
X166608333Y-104128333D02*
X167775000Y-107628333D01*
X168941666Y-104128333D01*
X170608333Y-107628333D02*
X170275000Y-107461666D01*
X170108333Y-107295000D01*
X169941666Y-106961666D01*
X169941666Y-105961666D01*
X170108333Y-105628333D01*
X170275000Y-105461666D01*
X170608333Y-105295000D01*
X171108333Y-105295000D01*
X171441666Y-105461666D01*
X171608333Y-105628333D01*
X171775000Y-105961666D01*
X171775000Y-106961666D01*
X171608333Y-107295000D01*
X171441666Y-107461666D01*
X171108333Y-107628333D01*
X170608333Y-107628333D01*
X173775000Y-107628333D02*
X173441666Y-107461666D01*
X173275000Y-107128333D01*
X173275000Y-104128333D01*
X174608333Y-105295000D02*
X175941666Y-105295000D01*
X175108333Y-104128333D02*
X175108333Y-107128333D01*
X175275000Y-107461666D01*
X175608333Y-107628333D01*
X175941666Y-107628333D01*
X160795000Y-112145000D02*
X161961666Y-112145000D01*
X162461666Y-113978333D02*
X160795000Y-113978333D01*
X160795000Y-110478333D01*
X162461666Y-110478333D01*
X163628333Y-113978333D02*
X165461666Y-111645000D01*
X163628333Y-111645000D02*
X165461666Y-113978333D01*
X166295000Y-111645000D02*
X167628333Y-111645000D01*
X166795000Y-110478333D02*
X166795000Y-113478333D01*
X166961666Y-113811666D01*
X167295000Y-113978333D01*
X167628333Y-113978333D01*
X173461666Y-113978333D02*
X172295000Y-112311666D01*
X171461666Y-113978333D02*
X171461666Y-110478333D01*
X172795000Y-110478333D01*
X173128333Y-110645000D01*
X173295000Y-110811666D01*
X173461666Y-111145000D01*
X173461666Y-111645000D01*
X173295000Y-111978333D01*
X173128333Y-112145000D01*
X172795000Y-112311666D01*
X171461666Y-112311666D01*
X176295000Y-113811666D02*
X175961666Y-113978333D01*
X175295000Y-113978333D01*
X174961666Y-113811666D01*
X174795000Y-113478333D01*
X174795000Y-112145000D01*
X174961666Y-111811666D01*
X175295000Y-111645000D01*
X175961666Y-111645000D01*
X176295000Y-111811666D01*
X176461666Y-112145000D01*
X176461666Y-112478333D01*
X174795000Y-112811666D01*
X177461666Y-111645000D02*
X178795000Y-111645000D01*
X177961666Y-113978333D02*
X177961666Y-110978333D01*
X178128333Y-110645000D01*
X178461666Y-110478333D01*
X178795000Y-110478333D01*
X150495000Y-135890000D02*
X150495000Y-131445000D01*
X179361666Y-132765000D02*
X179861666Y-132931666D01*
X180028333Y-133098333D01*
X180195000Y-133431666D01*
X180195000Y-133931666D01*
X180028333Y-134265000D01*
X179861666Y-134431666D01*
X179528333Y-134598333D01*
X178195000Y-134598333D01*
X178195000Y-131098333D01*
X179361666Y-131098333D01*
X179695000Y-131265000D01*
X179861666Y-131431666D01*
X180028333Y-131765000D01*
X180028333Y-132098333D01*
X179861666Y-132431666D01*
X179695000Y-132598333D01*
X179361666Y-132765000D01*
X178195000Y-132765000D01*
X182195000Y-134598333D02*
X181861666Y-134431666D01*
X181695000Y-134265000D01*
X181528333Y-133931666D01*
X181528333Y-132931666D01*
X181695000Y-132598333D01*
X181861666Y-132431666D01*
X182195000Y-132265000D01*
X182695000Y-132265000D01*
X183028333Y-132431666D01*
X183195000Y-132598333D01*
X183361666Y-132931666D01*
X183361666Y-133931666D01*
X183195000Y-134265000D01*
X183028333Y-134431666D01*
X182695000Y-134598333D01*
X182195000Y-134598333D01*
X186361666Y-134598333D02*
X186361666Y-132765000D01*
X186195000Y-132431666D01*
X185861666Y-132265000D01*
X185195000Y-132265000D01*
X184861666Y-132431666D01*
X186361666Y-134431666D02*
X186028333Y-134598333D01*
X185195000Y-134598333D01*
X184861666Y-134431666D01*
X184695000Y-134098333D01*
X184695000Y-133765000D01*
X184861666Y-133431666D01*
X185195000Y-133265000D01*
X186028333Y-133265000D01*
X186361666Y-133098333D01*
X188028333Y-134598333D02*
X188028333Y-132265000D01*
X188028333Y-132931666D02*
X188195000Y-132598333D01*
X188361666Y-132431666D01*
X188695000Y-132265000D01*
X189028333Y-132265000D01*
X191695000Y-134598333D02*
X191695000Y-131098333D01*
X191695000Y-134431666D02*
X191361666Y-134598333D01*
X190695000Y-134598333D01*
X190361666Y-134431666D01*
X190195000Y-134265000D01*
X190028333Y-133931666D01*
X190028333Y-132931666D01*
X190195000Y-132598333D01*
X190361666Y-132431666D01*
X190695000Y-132265000D01*
X191361666Y-132265000D01*
X191695000Y-132431666D01*
X195861666Y-134431666D02*
X196361666Y-134598333D01*
X197195000Y-134598333D01*
X197528333Y-134431666D01*
X197695000Y-134265000D01*
X197861666Y-133931666D01*
X197861666Y-133598333D01*
X197695000Y-133265000D01*
X197528333Y-133098333D01*
X197195000Y-132931666D01*
X196528333Y-132765000D01*
X196195000Y-132598333D01*
X196028333Y-132431666D01*
X195861666Y-132098333D01*
X195861666Y-131765000D01*
X196028333Y-131431666D01*
X196195000Y-131265000D01*
X196528333Y-131098333D01*
X197361666Y-131098333D01*
X197861666Y-131265000D01*
X200861666Y-132265000D02*
X200861666Y-134598333D01*
X199361666Y-132265000D02*
X199361666Y-134098333D01*
X199528333Y-134431666D01*
X199861666Y-134598333D01*
X200361666Y-134598333D01*
X200695000Y-134431666D01*
X200861666Y-134265000D01*
X202528333Y-132265000D02*
X202528333Y-135765000D01*
X202528333Y-132431666D02*
X202861666Y-132265000D01*
X203528333Y-132265000D01*
X203861666Y-132431666D01*
X204028333Y-132598333D01*
X204195000Y-132931666D01*
X204195000Y-133931666D01*
X204028333Y-134265000D01*
X203861666Y-134431666D01*
X203528333Y-134598333D01*
X202861666Y-134598333D01*
X202528333Y-134431666D01*
X205695000Y-132265000D02*
X205695000Y-135765000D01*
X205695000Y-132431666D02*
X206028333Y-132265000D01*
X206695000Y-132265000D01*
X207028333Y-132431666D01*
X207195000Y-132598333D01*
X207361666Y-132931666D01*
X207361666Y-133931666D01*
X207195000Y-134265000D01*
X207028333Y-134431666D01*
X206695000Y-134598333D01*
X206028333Y-134598333D01*
X205695000Y-134431666D01*
X209361666Y-134598333D02*
X209028333Y-134431666D01*
X208861666Y-134098333D01*
X208861666Y-131098333D01*
X210361666Y-132265000D02*
X211195000Y-134598333D01*
X212028333Y-132265000D02*
X211195000Y-134598333D01*
X210861666Y-135431666D01*
X210695000Y-135598333D01*
X210361666Y-135765000D01*
X178611666Y-139015000D02*
X181278333Y-139015000D01*
X179945000Y-140348333D02*
X179945000Y-137681666D01*
X192778333Y-140348333D02*
X190778333Y-140348333D01*
X191778333Y-140348333D02*
X191778333Y-136848333D01*
X191445000Y-137348333D01*
X191111666Y-137681666D01*
X190778333Y-137848333D01*
X194111666Y-137181666D02*
X194278333Y-137015000D01*
X194611666Y-136848333D01*
X195445000Y-136848333D01*
X195778333Y-137015000D01*
X195945000Y-137181666D01*
X196111666Y-137515000D01*
X196111666Y-137848333D01*
X195945000Y-138348333D01*
X193945000Y-140348333D01*
X196111666Y-140348333D01*
X197111666Y-136848333D02*
X198278333Y-140348333D01*
X199445000Y-136848333D01*
X208611666Y-139015000D02*
X211278333Y-139015000D01*
D13*
X108925476Y-138886428D02*
X109758809Y-138886428D01*
X110115952Y-140195952D02*
X108925476Y-140195952D01*
X108925476Y-137695952D01*
X110115952Y-137695952D01*
X110949285Y-140195952D02*
X112258809Y-138529285D01*
X110949285Y-138529285D02*
X112258809Y-140195952D01*
X112854047Y-138529285D02*
X113806428Y-138529285D01*
X113211190Y-137695952D02*
X113211190Y-139838809D01*
X113330238Y-140076904D01*
X113568333Y-140195952D01*
X113806428Y-140195952D01*
X115592142Y-140076904D02*
X115354047Y-140195952D01*
X114877857Y-140195952D01*
X114639761Y-140076904D01*
X114520714Y-139838809D01*
X114520714Y-138886428D01*
X114639761Y-138648333D01*
X114877857Y-138529285D01*
X115354047Y-138529285D01*
X115592142Y-138648333D01*
X115711190Y-138886428D01*
X115711190Y-139124523D01*
X114520714Y-139362619D01*
X116782619Y-140195952D02*
X116782619Y-138529285D01*
X116782619Y-139005476D02*
X116901666Y-138767380D01*
X117020714Y-138648333D01*
X117258809Y-138529285D01*
X117496904Y-138529285D01*
X118330238Y-138529285D02*
X118330238Y-140195952D01*
X118330238Y-138767380D02*
X118449285Y-138648333D01*
X118687380Y-138529285D01*
X119044523Y-138529285D01*
X119282619Y-138648333D01*
X119401666Y-138886428D01*
X119401666Y-140195952D01*
X121663571Y-140195952D02*
X121663571Y-138886428D01*
X121544523Y-138648333D01*
X121306428Y-138529285D01*
X120830238Y-138529285D01*
X120592142Y-138648333D01*
X121663571Y-140076904D02*
X121425476Y-140195952D01*
X120830238Y-140195952D01*
X120592142Y-140076904D01*
X120473095Y-139838809D01*
X120473095Y-139600714D01*
X120592142Y-139362619D01*
X120830238Y-139243571D01*
X121425476Y-139243571D01*
X121663571Y-139124523D01*
X123211190Y-140195952D02*
X122973095Y-140076904D01*
X122854047Y-139838809D01*
X122854047Y-137695952D01*
X127496904Y-140195952D02*
X126663571Y-139005476D01*
X126068333Y-140195952D02*
X126068333Y-137695952D01*
X127020714Y-137695952D01*
X127258809Y-137815000D01*
X127377857Y-137934047D01*
X127496904Y-138172142D01*
X127496904Y-138529285D01*
X127377857Y-138767380D01*
X127258809Y-138886428D01*
X127020714Y-139005476D01*
X126068333Y-139005476D01*
X129520714Y-140076904D02*
X129282619Y-140195952D01*
X128806428Y-140195952D01*
X128568333Y-140076904D01*
X128449285Y-139838809D01*
X128449285Y-138886428D01*
X128568333Y-138648333D01*
X128806428Y-138529285D01*
X129282619Y-138529285D01*
X129520714Y-138648333D01*
X129639761Y-138886428D01*
X129639761Y-139124523D01*
X128449285Y-139362619D01*
X130354047Y-138529285D02*
X131306428Y-138529285D01*
X130711190Y-140195952D02*
X130711190Y-138053095D01*
X130830238Y-137815000D01*
X131068333Y-137695952D01*
X131306428Y-137695952D01*
X133092142Y-140076904D02*
X132854047Y-140195952D01*
X132377857Y-140195952D01*
X132139761Y-140076904D01*
X132020714Y-139838809D01*
X132020714Y-138886428D01*
X132139761Y-138648333D01*
X132377857Y-138529285D01*
X132854047Y-138529285D01*
X133092142Y-138648333D01*
X133211190Y-138886428D01*
X133211190Y-139124523D01*
X132020714Y-139362619D01*
X134282619Y-140195952D02*
X134282619Y-138529285D01*
X134282619Y-139005476D02*
X134401666Y-138767380D01*
X134520714Y-138648333D01*
X134758809Y-138529285D01*
X134996904Y-138529285D01*
X136782619Y-140076904D02*
X136544523Y-140195952D01*
X136068333Y-140195952D01*
X135830238Y-140076904D01*
X135711190Y-139838809D01*
X135711190Y-138886428D01*
X135830238Y-138648333D01*
X136068333Y-138529285D01*
X136544523Y-138529285D01*
X136782619Y-138648333D01*
X136901666Y-138886428D01*
X136901666Y-139124523D01*
X135711190Y-139362619D01*
X137973095Y-138529285D02*
X137973095Y-140195952D01*
X137973095Y-138767380D02*
X138092142Y-138648333D01*
X138330238Y-138529285D01*
X138687380Y-138529285D01*
X138925476Y-138648333D01*
X139044523Y-138886428D01*
X139044523Y-140195952D01*
X141306428Y-140076904D02*
X141068333Y-140195952D01*
X140592142Y-140195952D01*
X140354047Y-140076904D01*
X140235000Y-139957857D01*
X140115952Y-139719761D01*
X140115952Y-139005476D01*
X140235000Y-138767380D01*
X140354047Y-138648333D01*
X140592142Y-138529285D01*
X141068333Y-138529285D01*
X141306428Y-138648333D01*
X143330238Y-140076904D02*
X143092142Y-140195952D01*
X142615952Y-140195952D01*
X142377857Y-140076904D01*
X142258809Y-139838809D01*
X142258809Y-138886428D01*
X142377857Y-138648333D01*
X142615952Y-138529285D01*
X143092142Y-138529285D01*
X143330238Y-138648333D01*
X143449285Y-138886428D01*
X143449285Y-139124523D01*
X142258809Y-139362619D01*
X146068333Y-137695952D02*
X146901666Y-140195952D01*
X147735000Y-137695952D01*
X148925476Y-140195952D02*
X148687380Y-140076904D01*
X148568333Y-139957857D01*
X148449285Y-139719761D01*
X148449285Y-139005476D01*
X148568333Y-138767380D01*
X148687380Y-138648333D01*
X148925476Y-138529285D01*
X149282619Y-138529285D01*
X149520714Y-138648333D01*
X149639761Y-138767380D01*
X149758809Y-139005476D01*
X149758809Y-139719761D01*
X149639761Y-139957857D01*
X149520714Y-140076904D01*
X149282619Y-140195952D01*
X148925476Y-140195952D01*
X151187380Y-140195952D02*
X150949285Y-140076904D01*
X150830238Y-139838809D01*
X150830238Y-137695952D01*
X151782619Y-138529285D02*
X152735000Y-138529285D01*
X152139761Y-137695952D02*
X152139761Y-139838809D01*
X152258809Y-140076904D01*
X152496904Y-140195952D01*
X152735000Y-140195952D01*
X154639761Y-140195952D02*
X154639761Y-138886428D01*
X154520714Y-138648333D01*
X154282619Y-138529285D01*
X153806428Y-138529285D01*
X153568333Y-138648333D01*
X154639761Y-140076904D02*
X154401666Y-140195952D01*
X153806428Y-140195952D01*
X153568333Y-140076904D01*
X153449285Y-139838809D01*
X153449285Y-139600714D01*
X153568333Y-139362619D01*
X153806428Y-139243571D01*
X154401666Y-139243571D01*
X154639761Y-139124523D01*
X156901666Y-138529285D02*
X156901666Y-140553095D01*
X156782619Y-140791190D01*
X156663571Y-140910238D01*
X156425476Y-141029285D01*
X156068333Y-141029285D01*
X155830238Y-140910238D01*
X156901666Y-140076904D02*
X156663571Y-140195952D01*
X156187380Y-140195952D01*
X155949285Y-140076904D01*
X155830238Y-139957857D01*
X155711190Y-139719761D01*
X155711190Y-139005476D01*
X155830238Y-138767380D01*
X155949285Y-138648333D01*
X156187380Y-138529285D01*
X156663571Y-138529285D01*
X156901666Y-138648333D01*
X159044523Y-140076904D02*
X158806428Y-140195952D01*
X158330238Y-140195952D01*
X158092142Y-140076904D01*
X157973095Y-139838809D01*
X157973095Y-138886428D01*
X158092142Y-138648333D01*
X158330238Y-138529285D01*
X158806428Y-138529285D01*
X159044523Y-138648333D01*
X159163571Y-138886428D01*
X159163571Y-139124523D01*
X157973095Y-139362619D01*
D10*
X75281666Y-122868333D02*
X73615000Y-122868333D01*
X73615000Y-119368333D01*
X76948333Y-122868333D02*
X76615000Y-122701666D01*
X76448333Y-122535000D01*
X76281666Y-122201666D01*
X76281666Y-121201666D01*
X76448333Y-120868333D01*
X76615000Y-120701666D01*
X76948333Y-120535000D01*
X77448333Y-120535000D01*
X77781666Y-120701666D01*
X77948333Y-120868333D01*
X78115000Y-121201666D01*
X78115000Y-122201666D01*
X77948333Y-122535000D01*
X77781666Y-122701666D01*
X77448333Y-122868333D01*
X76948333Y-122868333D01*
X81115000Y-122868333D02*
X81115000Y-121035000D01*
X80948333Y-120701666D01*
X80615000Y-120535000D01*
X79948333Y-120535000D01*
X79615000Y-120701666D01*
X81115000Y-122701666D02*
X80781666Y-122868333D01*
X79948333Y-122868333D01*
X79615000Y-122701666D01*
X79448333Y-122368333D01*
X79448333Y-122035000D01*
X79615000Y-121701666D01*
X79948333Y-121535000D01*
X80781666Y-121535000D01*
X81115000Y-121368333D01*
X84281666Y-122868333D02*
X84281666Y-119368333D01*
X84281666Y-122701666D02*
X83948333Y-122868333D01*
X83281666Y-122868333D01*
X82948333Y-122701666D01*
X82781666Y-122535000D01*
X82615000Y-122201666D01*
X82615000Y-121201666D01*
X82781666Y-120868333D01*
X82948333Y-120701666D01*
X83281666Y-120535000D01*
X83948333Y-120535000D01*
X84281666Y-120701666D01*
X88448333Y-121868333D02*
X90115000Y-121868333D01*
X88115000Y-122868333D02*
X89281666Y-119368333D01*
X90448333Y-122868333D01*
X93115000Y-122868333D02*
X93115000Y-119368333D01*
X93115000Y-122701666D02*
X92781666Y-122868333D01*
X92115000Y-122868333D01*
X91781666Y-122701666D01*
X91615000Y-122535000D01*
X91448333Y-122201666D01*
X91448333Y-121201666D01*
X91615000Y-120868333D01*
X91781666Y-120701666D01*
X92115000Y-120535000D01*
X92781666Y-120535000D01*
X93115000Y-120701666D01*
X94781666Y-120535000D02*
X94781666Y-123535000D01*
X94615000Y-123868333D01*
X94281666Y-124035000D01*
X94115000Y-124035000D01*
X94781666Y-119368333D02*
X94615000Y-119535000D01*
X94781666Y-119701666D01*
X94948333Y-119535000D01*
X94781666Y-119368333D01*
X94781666Y-119701666D01*
X97948333Y-120535000D02*
X97948333Y-122868333D01*
X96448333Y-120535000D02*
X96448333Y-122368333D01*
X96615000Y-122701666D01*
X96948333Y-122868333D01*
X97448333Y-122868333D01*
X97781666Y-122701666D01*
X97948333Y-122535000D01*
X99448333Y-122701666D02*
X99781666Y-122868333D01*
X100448333Y-122868333D01*
X100781666Y-122701666D01*
X100948333Y-122368333D01*
X100948333Y-122201666D01*
X100781666Y-121868333D01*
X100448333Y-121701666D01*
X99948333Y-121701666D01*
X99615000Y-121535000D01*
X99448333Y-121201666D01*
X99448333Y-121035000D01*
X99615000Y-120701666D01*
X99948333Y-120535000D01*
X100448333Y-120535000D01*
X100781666Y-120701666D01*
X101948333Y-120535000D02*
X103281666Y-120535000D01*
X102448333Y-119368333D02*
X102448333Y-122368333D01*
X102615000Y-122701666D01*
X102948333Y-122868333D01*
X103281666Y-122868333D01*
X104448333Y-122868333D02*
X104448333Y-120535000D01*
X104448333Y-120868333D02*
X104615000Y-120701666D01*
X104948333Y-120535000D01*
X105448333Y-120535000D01*
X105781666Y-120701666D01*
X105948333Y-121035000D01*
X105948333Y-122868333D01*
X105948333Y-121035000D02*
X106115000Y-120701666D01*
X106448333Y-120535000D01*
X106948333Y-120535000D01*
X107281666Y-120701666D01*
X107448333Y-121035000D01*
X107448333Y-122868333D01*
X110448333Y-122701666D02*
X110115000Y-122868333D01*
X109448333Y-122868333D01*
X109115000Y-122701666D01*
X108948333Y-122368333D01*
X108948333Y-121035000D01*
X109115000Y-120701666D01*
X109448333Y-120535000D01*
X110115000Y-120535000D01*
X110448333Y-120701666D01*
X110615000Y-121035000D01*
X110615000Y-121368333D01*
X108948333Y-121701666D01*
X112115000Y-120535000D02*
X112115000Y-122868333D01*
X112115000Y-120868333D02*
X112281666Y-120701666D01*
X112615000Y-120535000D01*
X113115000Y-120535000D01*
X113448333Y-120701666D01*
X113615000Y-121035000D01*
X113615000Y-122868333D01*
X114781666Y-120535000D02*
X116115000Y-120535000D01*
X115281666Y-119368333D02*
X115281666Y-122368333D01*
X115448333Y-122701666D01*
X115781666Y-122868333D01*
X116115000Y-122868333D01*
D14*
%TO.C,R9*%
X137795000Y-105664000D02*
X127635000Y-105664000D01*
X127635000Y-107696000D02*
X137795000Y-107696000D01*
X133731000Y-105918000D02*
X131699000Y-105918000D01*
X131699000Y-107442000D02*
X133731000Y-107442000D01*
%TO.C,R13*%
X142240000Y-107696000D02*
X152400000Y-107696000D01*
X152400000Y-105664000D02*
X142240000Y-105664000D01*
X146304000Y-107442000D02*
X148336000Y-107442000D01*
X148336000Y-105918000D02*
X146304000Y-105918000D01*
%TO.C,R12*%
X152400000Y-110744000D02*
X142240000Y-110744000D01*
X142240000Y-112776000D02*
X152400000Y-112776000D01*
X148336000Y-110998000D02*
X146304000Y-110998000D01*
X146304000Y-112522000D02*
X148336000Y-112522000D01*
D15*
%TO.C,G\u002A\u002A\u002A*%
G36*
X226999800Y-73803933D02*
G01*
X213690201Y-73803933D01*
X213690201Y-72055019D01*
X215764645Y-72055019D01*
X215787873Y-72074291D01*
X215804050Y-72086712D01*
X215830468Y-72105910D01*
X215863344Y-72129173D01*
X215895767Y-72151646D01*
X215931329Y-72175770D01*
X215962571Y-72196157D01*
X215993462Y-72215189D01*
X216027968Y-72235246D01*
X216070058Y-72258708D01*
X216115901Y-72283726D01*
X216171160Y-72311191D01*
X216237415Y-72340082D01*
X216310449Y-72368893D01*
X216386045Y-72396116D01*
X216459985Y-72420244D01*
X216528052Y-72439769D01*
X216586030Y-72453186D01*
X216594267Y-72454696D01*
X216615881Y-72459009D01*
X216628134Y-72461995D01*
X216644945Y-72465742D01*
X216668613Y-72469979D01*
X216670467Y-72470275D01*
X216697539Y-72474702D01*
X216721173Y-72478795D01*
X216721267Y-72478812D01*
X216741289Y-72481821D01*
X216770634Y-72485521D01*
X216793234Y-72488061D01*
X216820598Y-72491346D01*
X216840214Y-72494414D01*
X216847059Y-72496258D01*
X216856300Y-72497177D01*
X216879633Y-72497647D01*
X216914221Y-72497719D01*
X216957229Y-72497442D01*
X217005824Y-72496864D01*
X217057168Y-72496036D01*
X217108428Y-72495007D01*
X217156768Y-72493826D01*
X217199353Y-72492543D01*
X217233347Y-72491206D01*
X217255916Y-72489866D01*
X217263134Y-72489013D01*
X217281835Y-72485499D01*
X217311191Y-72480511D01*
X217345110Y-72475079D01*
X217347800Y-72474662D01*
X217404761Y-72464354D01*
X217468672Y-72450277D01*
X217535806Y-72433481D01*
X217602436Y-72415017D01*
X217664833Y-72395934D01*
X217719270Y-72377283D01*
X217762020Y-72360114D01*
X217773250Y-72354790D01*
X217792678Y-72345755D01*
X217803901Y-72341920D01*
X217805000Y-72342253D01*
X217811951Y-72341037D01*
X217830986Y-72333009D01*
X217859380Y-72319569D01*
X217894408Y-72302115D01*
X217933345Y-72282047D01*
X217973465Y-72260764D01*
X218012045Y-72239665D01*
X218046358Y-72220150D01*
X218067642Y-72207401D01*
X218220805Y-72103548D01*
X218360955Y-71989381D01*
X218488443Y-71864467D01*
X218603624Y-71728374D01*
X218706850Y-71580670D01*
X218798474Y-71420922D01*
X218878850Y-71248697D01*
X218906757Y-71179266D01*
X218914232Y-71158957D01*
X218918190Y-71146451D01*
X218918367Y-71145400D01*
X218921210Y-71135312D01*
X218927821Y-71116717D01*
X218928180Y-71115766D01*
X218941922Y-71074442D01*
X218956800Y-71021296D01*
X218971639Y-70961282D01*
X218985263Y-70899353D01*
X218996499Y-70840463D01*
X219002481Y-70802500D01*
X219006272Y-70775385D01*
X219011203Y-70740327D01*
X219014977Y-70713600D01*
X219017001Y-70690044D01*
X219018512Y-70653726D01*
X219019526Y-70607689D01*
X219020060Y-70554973D01*
X219020131Y-70498621D01*
X219019757Y-70441674D01*
X219018955Y-70387174D01*
X219017742Y-70338163D01*
X219016135Y-70297682D01*
X219014151Y-70268773D01*
X219012399Y-70256400D01*
X219008103Y-70234570D01*
X219003618Y-70205946D01*
X219002436Y-70197133D01*
X218997399Y-70165837D01*
X218989132Y-70123153D01*
X218978740Y-70074061D01*
X218967332Y-70023542D01*
X218956012Y-69976575D01*
X218945887Y-69938142D01*
X218941879Y-69924517D01*
X218933992Y-69899097D01*
X218928379Y-69880980D01*
X218926658Y-69875400D01*
X218922039Y-69862316D01*
X218912270Y-69836742D01*
X218896851Y-69797385D01*
X218887528Y-69773800D01*
X218875496Y-69743046D01*
X218866020Y-69718121D01*
X218860761Y-69703414D01*
X218860296Y-69701833D01*
X218851663Y-69678431D01*
X218835091Y-69643658D01*
X218812154Y-69600148D01*
X218784426Y-69550536D01*
X218753483Y-69497459D01*
X218720900Y-69443552D01*
X218688252Y-69391450D01*
X218657113Y-69343788D01*
X218629058Y-69303203D01*
X218605662Y-69272329D01*
X218598775Y-69264202D01*
X218578622Y-69241437D01*
X218477506Y-69341156D01*
X218376391Y-69440876D01*
X218441758Y-69537488D01*
X218524227Y-69672508D01*
X218594706Y-69815249D01*
X218652089Y-69962842D01*
X218695268Y-70112422D01*
X218723136Y-70261119D01*
X218724188Y-70269100D01*
X218732385Y-70350943D01*
X218737037Y-70438545D01*
X218738160Y-70527269D01*
X218735770Y-70612479D01*
X218729885Y-70689539D01*
X218722491Y-70743233D01*
X218717996Y-70769713D01*
X218714776Y-70789800D01*
X218710260Y-70815993D01*
X218707100Y-70832133D01*
X218663444Y-71000517D01*
X218604714Y-71161602D01*
X218531328Y-71314726D01*
X218443700Y-71459228D01*
X218342245Y-71594445D01*
X218227377Y-71719716D01*
X218099514Y-71834378D01*
X218057953Y-71867168D01*
X218022844Y-71892686D01*
X217980744Y-71921190D01*
X217935067Y-71950583D01*
X217889229Y-71978771D01*
X217846645Y-72003657D01*
X217810729Y-72023148D01*
X217784896Y-72035147D01*
X217783100Y-72035818D01*
X217764141Y-72044344D01*
X217754505Y-72051944D01*
X217754200Y-72053034D01*
X217747437Y-72059257D01*
X217743091Y-72059800D01*
X217729228Y-72063287D01*
X217707013Y-72072102D01*
X217695897Y-72077234D01*
X217674378Y-72086395D01*
X217641493Y-72098955D01*
X217601332Y-72113502D01*
X217557988Y-72128624D01*
X217515552Y-72142910D01*
X217478115Y-72154949D01*
X217449769Y-72163328D01*
X217438166Y-72166143D01*
X217421033Y-72169426D01*
X217393012Y-72174802D01*
X217359843Y-72181169D01*
X217356267Y-72181855D01*
X217264299Y-72197792D01*
X217181263Y-72208158D01*
X217100358Y-72213644D01*
X217030300Y-72214987D01*
X216993235Y-72214356D01*
X216949085Y-72212615D01*
X216902331Y-72210054D01*
X216857452Y-72206960D01*
X216818926Y-72203621D01*
X216791233Y-72200324D01*
X216784767Y-72199201D01*
X216765338Y-72195810D01*
X216739134Y-72191859D01*
X216733967Y-72191141D01*
X216701400Y-72185379D01*
X216657793Y-72175844D01*
X216608271Y-72163799D01*
X216557962Y-72150505D01*
X216511994Y-72137224D01*
X216501134Y-72133849D01*
X216388840Y-72092824D01*
X216272897Y-72040375D01*
X216158874Y-71979281D01*
X216052341Y-71912323D01*
X216039925Y-71903746D01*
X216010544Y-71883591D01*
X215986436Y-71867736D01*
X215970879Y-71858299D01*
X215967008Y-71856600D01*
X215959533Y-71862312D01*
X215942295Y-71878118D01*
X215917386Y-71902018D01*
X215886898Y-71932016D01*
X215863122Y-71955810D01*
X215764645Y-72055019D01*
X213690201Y-72055019D01*
X213690201Y-70529228D01*
X215024659Y-70529228D01*
X215025547Y-70590892D01*
X215027337Y-70645814D01*
X215030020Y-70689394D01*
X215030696Y-70696666D01*
X215054129Y-70858753D01*
X215091285Y-71020843D01*
X215141054Y-71179414D01*
X215202325Y-71330945D01*
X215273991Y-71471914D01*
X215276094Y-71475600D01*
X215294736Y-71507307D01*
X215316976Y-71543798D01*
X215340890Y-71582074D01*
X215364553Y-71619134D01*
X215386039Y-71651978D01*
X215403425Y-71677605D01*
X215414786Y-71693016D01*
X215417313Y-71695733D01*
X215425084Y-71704861D01*
X215437970Y-71722244D01*
X215441668Y-71727483D01*
X215455216Y-71744946D01*
X215465201Y-71754431D01*
X215466793Y-71755000D01*
X215474445Y-71749297D01*
X215491875Y-71733512D01*
X215516985Y-71709634D01*
X215547674Y-71679648D01*
X215572174Y-71655265D01*
X215671649Y-71555530D01*
X215633364Y-71502915D01*
X215542916Y-71364361D01*
X215465988Y-71216304D01*
X215403127Y-71060124D01*
X215354880Y-70897200D01*
X215321793Y-70728911D01*
X215318997Y-70709366D01*
X215315307Y-70670404D01*
X215312937Y-70619484D01*
X215311822Y-70560237D01*
X215311897Y-70496290D01*
X215313096Y-70431273D01*
X215315353Y-70368815D01*
X215318603Y-70312543D01*
X215322779Y-70266087D01*
X215327580Y-70234189D01*
X215331660Y-70213004D01*
X215336121Y-70187623D01*
X215340824Y-70161608D01*
X215345281Y-70139983D01*
X215350377Y-70117712D01*
X215353013Y-70106084D01*
X215365364Y-70057393D01*
X215381842Y-70000868D01*
X215400383Y-69943022D01*
X215418923Y-69890368D01*
X215431475Y-69858467D01*
X215454618Y-69805404D01*
X215478323Y-69755424D01*
X215504496Y-69704972D01*
X215535041Y-69650490D01*
X215571865Y-69588422D01*
X215606014Y-69532710D01*
X215621515Y-69510343D01*
X215645517Y-69478830D01*
X215675190Y-69441610D01*
X215707705Y-69402122D01*
X215740231Y-69363804D01*
X215769938Y-69330093D01*
X215793407Y-69305027D01*
X215904677Y-69202201D01*
X220438134Y-69202201D01*
X220438134Y-72500476D01*
X220579950Y-72498155D01*
X220721767Y-72495833D01*
X220722251Y-70848789D01*
X220722735Y-69201744D01*
X220580434Y-69201973D01*
X220438134Y-69202201D01*
X215904677Y-69202201D01*
X215921700Y-69186470D01*
X216058182Y-69082727D01*
X216202950Y-68993739D01*
X216356100Y-68919446D01*
X216504541Y-68864004D01*
X216538734Y-68853227D01*
X216569225Y-68844144D01*
X216590465Y-68838394D01*
X216593441Y-68837720D01*
X216613176Y-68833398D01*
X216623901Y-68830812D01*
X216656647Y-68823139D01*
X216701257Y-68814386D01*
X216752782Y-68805461D01*
X216806268Y-68797269D01*
X216810167Y-68796717D01*
X216846214Y-68793102D01*
X216894202Y-68790373D01*
X216950333Y-68788543D01*
X217010811Y-68787622D01*
X217071836Y-68787622D01*
X217129613Y-68788555D01*
X217180343Y-68790433D01*
X217220230Y-68793266D01*
X217237284Y-68795415D01*
X217308009Y-68807324D01*
X217364597Y-68817575D01*
X217406247Y-68826013D01*
X217432157Y-68832482D01*
X217436947Y-68834093D01*
X217452305Y-68838859D01*
X217457867Y-68838720D01*
X217465319Y-68840060D01*
X217485618Y-68846158D01*
X217515681Y-68856035D01*
X217552423Y-68868713D01*
X217553117Y-68868958D01*
X217591004Y-68882273D01*
X217623248Y-68893538D01*
X217646377Y-68901545D01*
X217656834Y-68905060D01*
X217691813Y-68918131D01*
X217737399Y-68938984D01*
X217790271Y-68965771D01*
X217847111Y-68996643D01*
X217904596Y-69029750D01*
X217959407Y-69063246D01*
X218008223Y-69095280D01*
X218041653Y-69119315D01*
X218079340Y-69148008D01*
X218181353Y-69045632D01*
X218218355Y-69008343D01*
X218244715Y-68981097D01*
X218261822Y-68962020D01*
X218271061Y-68949237D01*
X218273821Y-68940871D01*
X218271488Y-68935049D01*
X218266434Y-68930621D01*
X218246384Y-68914833D01*
X218231662Y-68902502D01*
X218202486Y-68879865D01*
X218161407Y-68851704D01*
X218111698Y-68820004D01*
X218056632Y-68786753D01*
X218050445Y-68783200D01*
X219261267Y-68783200D01*
X220576928Y-68783200D01*
X220757912Y-68783175D01*
X220922630Y-68783097D01*
X221071751Y-68782961D01*
X221205941Y-68782762D01*
X221325868Y-68782493D01*
X221432201Y-68782150D01*
X221525606Y-68781727D01*
X221606752Y-68781219D01*
X221676306Y-68780620D01*
X221734936Y-68779926D01*
X221783309Y-68779130D01*
X221822093Y-68778228D01*
X221851956Y-68777214D01*
X221873566Y-68776083D01*
X221887590Y-68774829D01*
X221894695Y-68773447D01*
X221895901Y-68772617D01*
X221897000Y-68760831D01*
X221897847Y-68735310D01*
X221898384Y-68699250D01*
X221898552Y-68655848D01*
X221898472Y-68630800D01*
X221897730Y-68499567D01*
X220579499Y-68497423D01*
X219293870Y-68495333D01*
X222622534Y-68495333D01*
X222622534Y-72500067D01*
X222910401Y-72500067D01*
X222910401Y-71027158D01*
X225394355Y-71027158D01*
X225394377Y-71194171D01*
X225394426Y-71354504D01*
X225394501Y-71507417D01*
X225394603Y-71652168D01*
X225394729Y-71788014D01*
X225394879Y-71914214D01*
X225395052Y-72030027D01*
X225395247Y-72134711D01*
X225395462Y-72227522D01*
X225395698Y-72307721D01*
X225395953Y-72374565D01*
X225396225Y-72427313D01*
X225396515Y-72465222D01*
X225396820Y-72487551D01*
X225397084Y-72493717D01*
X225406303Y-72495839D01*
X225429565Y-72497660D01*
X225463978Y-72499052D01*
X225506654Y-72499885D01*
X225539800Y-72500067D01*
X225679001Y-72500067D01*
X225679001Y-68494924D01*
X225537184Y-68497245D01*
X225395367Y-68499567D01*
X225394467Y-70493466D01*
X225394400Y-70676064D01*
X225394363Y-70854209D01*
X225394355Y-71027158D01*
X222910401Y-71027158D01*
X222910401Y-70358000D01*
X223328994Y-70358000D01*
X223330246Y-70499816D01*
X223330723Y-70546713D01*
X223331254Y-70587109D01*
X223331793Y-70618224D01*
X223332293Y-70637281D01*
X223332616Y-70641988D01*
X223341052Y-70642038D01*
X223365267Y-70642086D01*
X223404109Y-70642130D01*
X223456424Y-70642171D01*
X223521058Y-70642207D01*
X223596857Y-70642239D01*
X223682669Y-70642266D01*
X223777340Y-70642288D01*
X223879716Y-70642304D01*
X223988643Y-70642314D01*
X224102969Y-70642316D01*
X224154286Y-70642315D01*
X224974838Y-70642287D01*
X224975874Y-70500143D01*
X224976910Y-70358000D01*
X223328994Y-70358000D01*
X222910401Y-70358000D01*
X222910401Y-68495333D01*
X222622534Y-68495333D01*
X219293870Y-68495333D01*
X219261267Y-68495280D01*
X219261267Y-68783200D01*
X218050445Y-68783200D01*
X217999484Y-68753939D01*
X217943524Y-68723547D01*
X217902367Y-68702586D01*
X217850904Y-68678554D01*
X217793137Y-68653638D01*
X217732499Y-68629128D01*
X217672425Y-68606317D01*
X217616347Y-68586495D01*
X217567698Y-68570953D01*
X217529913Y-68560983D01*
X217521367Y-68559299D01*
X217494051Y-68553515D01*
X217468450Y-68546861D01*
X217450061Y-68542391D01*
X217441103Y-68541950D01*
X217440934Y-68542281D01*
X217434239Y-68542337D01*
X217421756Y-68538423D01*
X217401318Y-68532699D01*
X217373591Y-68527270D01*
X217364606Y-68525918D01*
X217337124Y-68521919D01*
X217314257Y-68518214D01*
X217309134Y-68517271D01*
X217263664Y-68510689D01*
X217205074Y-68505736D01*
X217137103Y-68502417D01*
X217063486Y-68500742D01*
X216987960Y-68500716D01*
X216914262Y-68502349D01*
X216846129Y-68505646D01*
X216787298Y-68510617D01*
X216747560Y-68516134D01*
X216729667Y-68519117D01*
X216702182Y-68523501D01*
X216672255Y-68528165D01*
X216647040Y-68531991D01*
X216636601Y-68533494D01*
X216615353Y-68537689D01*
X216581904Y-68545791D01*
X216540232Y-68556705D01*
X216494311Y-68569338D01*
X216448121Y-68582594D01*
X216405637Y-68595379D01*
X216370835Y-68606599D01*
X216370119Y-68606842D01*
X216334970Y-68618951D01*
X216305886Y-68629443D01*
X216279230Y-68639861D01*
X216251366Y-68651747D01*
X216218656Y-68666643D01*
X216177464Y-68686091D01*
X216132834Y-68707464D01*
X216094841Y-68726981D01*
X216049251Y-68752397D01*
X215999166Y-68781776D01*
X215947689Y-68813181D01*
X215897920Y-68844678D01*
X215852962Y-68874331D01*
X215815916Y-68900204D01*
X215789884Y-68920361D01*
X215785613Y-68924140D01*
X215769414Y-68938339D01*
X215746243Y-68957813D01*
X215730579Y-68970656D01*
X215673595Y-69020352D01*
X215611462Y-69080599D01*
X215547864Y-69147500D01*
X215486484Y-69217157D01*
X215431007Y-69285675D01*
X215423625Y-69295345D01*
X215396355Y-69332532D01*
X215368486Y-69372537D01*
X215341784Y-69412589D01*
X215318014Y-69449920D01*
X215298939Y-69481760D01*
X215286326Y-69505339D01*
X215281934Y-69517688D01*
X215276233Y-69528726D01*
X215274421Y-69529678D01*
X215266693Y-69538917D01*
X215253983Y-69561173D01*
X215237504Y-69593704D01*
X215218469Y-69633768D01*
X215198090Y-69678621D01*
X215177578Y-69725521D01*
X215158145Y-69771725D01*
X215141005Y-69814491D01*
X215127369Y-69851076D01*
X215118449Y-69878738D01*
X215116331Y-69887375D01*
X215111759Y-69905038D01*
X215104060Y-69930733D01*
X215100319Y-69942409D01*
X215085738Y-69993209D01*
X215070933Y-70055886D01*
X215056867Y-70125426D01*
X215044505Y-70196813D01*
X215034810Y-70265034D01*
X215030219Y-70307200D01*
X215027450Y-70349809D01*
X215025604Y-70404085D01*
X215024676Y-70465425D01*
X215024659Y-70529228D01*
X213690201Y-70529228D01*
X213690201Y-67166067D01*
X226999800Y-67166067D01*
X226999800Y-73803933D01*
G37*
X226999800Y-73803933D02*
X213690201Y-73803933D01*
X213690201Y-72055019D01*
X215764645Y-72055019D01*
X215787873Y-72074291D01*
X215804050Y-72086712D01*
X215830468Y-72105910D01*
X215863344Y-72129173D01*
X215895767Y-72151646D01*
X215931329Y-72175770D01*
X215962571Y-72196157D01*
X215993462Y-72215189D01*
X216027968Y-72235246D01*
X216070058Y-72258708D01*
X216115901Y-72283726D01*
X216171160Y-72311191D01*
X216237415Y-72340082D01*
X216310449Y-72368893D01*
X216386045Y-72396116D01*
X216459985Y-72420244D01*
X216528052Y-72439769D01*
X216586030Y-72453186D01*
X216594267Y-72454696D01*
X216615881Y-72459009D01*
X216628134Y-72461995D01*
X216644945Y-72465742D01*
X216668613Y-72469979D01*
X216670467Y-72470275D01*
X216697539Y-72474702D01*
X216721173Y-72478795D01*
X216721267Y-72478812D01*
X216741289Y-72481821D01*
X216770634Y-72485521D01*
X216793234Y-72488061D01*
X216820598Y-72491346D01*
X216840214Y-72494414D01*
X216847059Y-72496258D01*
X216856300Y-72497177D01*
X216879633Y-72497647D01*
X216914221Y-72497719D01*
X216957229Y-72497442D01*
X217005824Y-72496864D01*
X217057168Y-72496036D01*
X217108428Y-72495007D01*
X217156768Y-72493826D01*
X217199353Y-72492543D01*
X217233347Y-72491206D01*
X217255916Y-72489866D01*
X217263134Y-72489013D01*
X217281835Y-72485499D01*
X217311191Y-72480511D01*
X217345110Y-72475079D01*
X217347800Y-72474662D01*
X217404761Y-72464354D01*
X217468672Y-72450277D01*
X217535806Y-72433481D01*
X217602436Y-72415017D01*
X217664833Y-72395934D01*
X217719270Y-72377283D01*
X217762020Y-72360114D01*
X217773250Y-72354790D01*
X217792678Y-72345755D01*
X217803901Y-72341920D01*
X217805000Y-72342253D01*
X217811951Y-72341037D01*
X217830986Y-72333009D01*
X217859380Y-72319569D01*
X217894408Y-72302115D01*
X217933345Y-72282047D01*
X217973465Y-72260764D01*
X218012045Y-72239665D01*
X218046358Y-72220150D01*
X218067642Y-72207401D01*
X218220805Y-72103548D01*
X218360955Y-71989381D01*
X218488443Y-71864467D01*
X218603624Y-71728374D01*
X218706850Y-71580670D01*
X218798474Y-71420922D01*
X218878850Y-71248697D01*
X218906757Y-71179266D01*
X218914232Y-71158957D01*
X218918190Y-71146451D01*
X218918367Y-71145400D01*
X218921210Y-71135312D01*
X218927821Y-71116717D01*
X218928180Y-71115766D01*
X218941922Y-71074442D01*
X218956800Y-71021296D01*
X218971639Y-70961282D01*
X218985263Y-70899353D01*
X218996499Y-70840463D01*
X219002481Y-70802500D01*
X219006272Y-70775385D01*
X219011203Y-70740327D01*
X219014977Y-70713600D01*
X219017001Y-70690044D01*
X219018512Y-70653726D01*
X219019526Y-70607689D01*
X219020060Y-70554973D01*
X219020131Y-70498621D01*
X219019757Y-70441674D01*
X219018955Y-70387174D01*
X219017742Y-70338163D01*
X219016135Y-70297682D01*
X219014151Y-70268773D01*
X219012399Y-70256400D01*
X219008103Y-70234570D01*
X219003618Y-70205946D01*
X219002436Y-70197133D01*
X218997399Y-70165837D01*
X218989132Y-70123153D01*
X218978740Y-70074061D01*
X218967332Y-70023542D01*
X218956012Y-69976575D01*
X218945887Y-69938142D01*
X218941879Y-69924517D01*
X218933992Y-69899097D01*
X218928379Y-69880980D01*
X218926658Y-69875400D01*
X218922039Y-69862316D01*
X218912270Y-69836742D01*
X218896851Y-69797385D01*
X218887528Y-69773800D01*
X218875496Y-69743046D01*
X218866020Y-69718121D01*
X218860761Y-69703414D01*
X218860296Y-69701833D01*
X218851663Y-69678431D01*
X218835091Y-69643658D01*
X218812154Y-69600148D01*
X218784426Y-69550536D01*
X218753483Y-69497459D01*
X218720900Y-69443552D01*
X218688252Y-69391450D01*
X218657113Y-69343788D01*
X218629058Y-69303203D01*
X218605662Y-69272329D01*
X218598775Y-69264202D01*
X218578622Y-69241437D01*
X218477506Y-69341156D01*
X218376391Y-69440876D01*
X218441758Y-69537488D01*
X218524227Y-69672508D01*
X218594706Y-69815249D01*
X218652089Y-69962842D01*
X218695268Y-70112422D01*
X218723136Y-70261119D01*
X218724188Y-70269100D01*
X218732385Y-70350943D01*
X218737037Y-70438545D01*
X218738160Y-70527269D01*
X218735770Y-70612479D01*
X218729885Y-70689539D01*
X218722491Y-70743233D01*
X218717996Y-70769713D01*
X218714776Y-70789800D01*
X218710260Y-70815993D01*
X218707100Y-70832133D01*
X218663444Y-71000517D01*
X218604714Y-71161602D01*
X218531328Y-71314726D01*
X218443700Y-71459228D01*
X218342245Y-71594445D01*
X218227377Y-71719716D01*
X218099514Y-71834378D01*
X218057953Y-71867168D01*
X218022844Y-71892686D01*
X217980744Y-71921190D01*
X217935067Y-71950583D01*
X217889229Y-71978771D01*
X217846645Y-72003657D01*
X217810729Y-72023148D01*
X217784896Y-72035147D01*
X217783100Y-72035818D01*
X217764141Y-72044344D01*
X217754505Y-72051944D01*
X217754200Y-72053034D01*
X217747437Y-72059257D01*
X217743091Y-72059800D01*
X217729228Y-72063287D01*
X217707013Y-72072102D01*
X217695897Y-72077234D01*
X217674378Y-72086395D01*
X217641493Y-72098955D01*
X217601332Y-72113502D01*
X217557988Y-72128624D01*
X217515552Y-72142910D01*
X217478115Y-72154949D01*
X217449769Y-72163328D01*
X217438166Y-72166143D01*
X217421033Y-72169426D01*
X217393012Y-72174802D01*
X217359843Y-72181169D01*
X217356267Y-72181855D01*
X217264299Y-72197792D01*
X217181263Y-72208158D01*
X217100358Y-72213644D01*
X217030300Y-72214987D01*
X216993235Y-72214356D01*
X216949085Y-72212615D01*
X216902331Y-72210054D01*
X216857452Y-72206960D01*
X216818926Y-72203621D01*
X216791233Y-72200324D01*
X216784767Y-72199201D01*
X216765338Y-72195810D01*
X216739134Y-72191859D01*
X216733967Y-72191141D01*
X216701400Y-72185379D01*
X216657793Y-72175844D01*
X216608271Y-72163799D01*
X216557962Y-72150505D01*
X216511994Y-72137224D01*
X216501134Y-72133849D01*
X216388840Y-72092824D01*
X216272897Y-72040375D01*
X216158874Y-71979281D01*
X216052341Y-71912323D01*
X216039925Y-71903746D01*
X216010544Y-71883591D01*
X215986436Y-71867736D01*
X215970879Y-71858299D01*
X215967008Y-71856600D01*
X215959533Y-71862312D01*
X215942295Y-71878118D01*
X215917386Y-71902018D01*
X215886898Y-71932016D01*
X215863122Y-71955810D01*
X215764645Y-72055019D01*
X213690201Y-72055019D01*
X213690201Y-70529228D01*
X215024659Y-70529228D01*
X215025547Y-70590892D01*
X215027337Y-70645814D01*
X215030020Y-70689394D01*
X215030696Y-70696666D01*
X215054129Y-70858753D01*
X215091285Y-71020843D01*
X215141054Y-71179414D01*
X215202325Y-71330945D01*
X215273991Y-71471914D01*
X215276094Y-71475600D01*
X215294736Y-71507307D01*
X215316976Y-71543798D01*
X215340890Y-71582074D01*
X215364553Y-71619134D01*
X215386039Y-71651978D01*
X215403425Y-71677605D01*
X215414786Y-71693016D01*
X215417313Y-71695733D01*
X215425084Y-71704861D01*
X215437970Y-71722244D01*
X215441668Y-71727483D01*
X215455216Y-71744946D01*
X215465201Y-71754431D01*
X215466793Y-71755000D01*
X215474445Y-71749297D01*
X215491875Y-71733512D01*
X215516985Y-71709634D01*
X215547674Y-71679648D01*
X215572174Y-71655265D01*
X215671649Y-71555530D01*
X215633364Y-71502915D01*
X215542916Y-71364361D01*
X215465988Y-71216304D01*
X215403127Y-71060124D01*
X215354880Y-70897200D01*
X215321793Y-70728911D01*
X215318997Y-70709366D01*
X215315307Y-70670404D01*
X215312937Y-70619484D01*
X215311822Y-70560237D01*
X215311897Y-70496290D01*
X215313096Y-70431273D01*
X215315353Y-70368815D01*
X215318603Y-70312543D01*
X215322779Y-70266087D01*
X215327580Y-70234189D01*
X215331660Y-70213004D01*
X215336121Y-70187623D01*
X215340824Y-70161608D01*
X215345281Y-70139983D01*
X215350377Y-70117712D01*
X215353013Y-70106084D01*
X215365364Y-70057393D01*
X215381842Y-70000868D01*
X215400383Y-69943022D01*
X215418923Y-69890368D01*
X215431475Y-69858467D01*
X215454618Y-69805404D01*
X215478323Y-69755424D01*
X215504496Y-69704972D01*
X215535041Y-69650490D01*
X215571865Y-69588422D01*
X215606014Y-69532710D01*
X215621515Y-69510343D01*
X215645517Y-69478830D01*
X215675190Y-69441610D01*
X215707705Y-69402122D01*
X215740231Y-69363804D01*
X215769938Y-69330093D01*
X215793407Y-69305027D01*
X215904677Y-69202201D01*
X220438134Y-69202201D01*
X220438134Y-72500476D01*
X220579950Y-72498155D01*
X220721767Y-72495833D01*
X220722251Y-70848789D01*
X220722735Y-69201744D01*
X220580434Y-69201973D01*
X220438134Y-69202201D01*
X215904677Y-69202201D01*
X215921700Y-69186470D01*
X216058182Y-69082727D01*
X216202950Y-68993739D01*
X216356100Y-68919446D01*
X216504541Y-68864004D01*
X216538734Y-68853227D01*
X216569225Y-68844144D01*
X216590465Y-68838394D01*
X216593441Y-68837720D01*
X216613176Y-68833398D01*
X216623901Y-68830812D01*
X216656647Y-68823139D01*
X216701257Y-68814386D01*
X216752782Y-68805461D01*
X216806268Y-68797269D01*
X216810167Y-68796717D01*
X216846214Y-68793102D01*
X216894202Y-68790373D01*
X216950333Y-68788543D01*
X217010811Y-68787622D01*
X217071836Y-68787622D01*
X217129613Y-68788555D01*
X217180343Y-68790433D01*
X217220230Y-68793266D01*
X217237284Y-68795415D01*
X217308009Y-68807324D01*
X217364597Y-68817575D01*
X217406247Y-68826013D01*
X217432157Y-68832482D01*
X217436947Y-68834093D01*
X217452305Y-68838859D01*
X217457867Y-68838720D01*
X217465319Y-68840060D01*
X217485618Y-68846158D01*
X217515681Y-68856035D01*
X217552423Y-68868713D01*
X217553117Y-68868958D01*
X217591004Y-68882273D01*
X217623248Y-68893538D01*
X217646377Y-68901545D01*
X217656834Y-68905060D01*
X217691813Y-68918131D01*
X217737399Y-68938984D01*
X217790271Y-68965771D01*
X217847111Y-68996643D01*
X217904596Y-69029750D01*
X217959407Y-69063246D01*
X218008223Y-69095280D01*
X218041653Y-69119315D01*
X218079340Y-69148008D01*
X218181353Y-69045632D01*
X218218355Y-69008343D01*
X218244715Y-68981097D01*
X218261822Y-68962020D01*
X218271061Y-68949237D01*
X218273821Y-68940871D01*
X218271488Y-68935049D01*
X218266434Y-68930621D01*
X218246384Y-68914833D01*
X218231662Y-68902502D01*
X218202486Y-68879865D01*
X218161407Y-68851704D01*
X218111698Y-68820004D01*
X218056632Y-68786753D01*
X218050445Y-68783200D01*
X219261267Y-68783200D01*
X220576928Y-68783200D01*
X220757912Y-68783175D01*
X220922630Y-68783097D01*
X221071751Y-68782961D01*
X221205941Y-68782762D01*
X221325868Y-68782493D01*
X221432201Y-68782150D01*
X221525606Y-68781727D01*
X221606752Y-68781219D01*
X221676306Y-68780620D01*
X221734936Y-68779926D01*
X221783309Y-68779130D01*
X221822093Y-68778228D01*
X221851956Y-68777214D01*
X221873566Y-68776083D01*
X221887590Y-68774829D01*
X221894695Y-68773447D01*
X221895901Y-68772617D01*
X221897000Y-68760831D01*
X221897847Y-68735310D01*
X221898384Y-68699250D01*
X221898552Y-68655848D01*
X221898472Y-68630800D01*
X221897730Y-68499567D01*
X220579499Y-68497423D01*
X219293870Y-68495333D01*
X222622534Y-68495333D01*
X222622534Y-72500067D01*
X222910401Y-72500067D01*
X222910401Y-71027158D01*
X225394355Y-71027158D01*
X225394377Y-71194171D01*
X225394426Y-71354504D01*
X225394501Y-71507417D01*
X225394603Y-71652168D01*
X225394729Y-71788014D01*
X225394879Y-71914214D01*
X225395052Y-72030027D01*
X225395247Y-72134711D01*
X225395462Y-72227522D01*
X225395698Y-72307721D01*
X225395953Y-72374565D01*
X225396225Y-72427313D01*
X225396515Y-72465222D01*
X225396820Y-72487551D01*
X225397084Y-72493717D01*
X225406303Y-72495839D01*
X225429565Y-72497660D01*
X225463978Y-72499052D01*
X225506654Y-72499885D01*
X225539800Y-72500067D01*
X225679001Y-72500067D01*
X225679001Y-68494924D01*
X225537184Y-68497245D01*
X225395367Y-68499567D01*
X225394467Y-70493466D01*
X225394400Y-70676064D01*
X225394363Y-70854209D01*
X225394355Y-71027158D01*
X222910401Y-71027158D01*
X222910401Y-70358000D01*
X223328994Y-70358000D01*
X223330246Y-70499816D01*
X223330723Y-70546713D01*
X223331254Y-70587109D01*
X223331793Y-70618224D01*
X223332293Y-70637281D01*
X223332616Y-70641988D01*
X223341052Y-70642038D01*
X223365267Y-70642086D01*
X223404109Y-70642130D01*
X223456424Y-70642171D01*
X223521058Y-70642207D01*
X223596857Y-70642239D01*
X223682669Y-70642266D01*
X223777340Y-70642288D01*
X223879716Y-70642304D01*
X223988643Y-70642314D01*
X224102969Y-70642316D01*
X224154286Y-70642315D01*
X224974838Y-70642287D01*
X224975874Y-70500143D01*
X224976910Y-70358000D01*
X223328994Y-70358000D01*
X222910401Y-70358000D01*
X222910401Y-68495333D01*
X222622534Y-68495333D01*
X219293870Y-68495333D01*
X219261267Y-68495280D01*
X219261267Y-68783200D01*
X218050445Y-68783200D01*
X217999484Y-68753939D01*
X217943524Y-68723547D01*
X217902367Y-68702586D01*
X217850904Y-68678554D01*
X217793137Y-68653638D01*
X217732499Y-68629128D01*
X217672425Y-68606317D01*
X217616347Y-68586495D01*
X217567698Y-68570953D01*
X217529913Y-68560983D01*
X217521367Y-68559299D01*
X217494051Y-68553515D01*
X217468450Y-68546861D01*
X217450061Y-68542391D01*
X217441103Y-68541950D01*
X217440934Y-68542281D01*
X217434239Y-68542337D01*
X217421756Y-68538423D01*
X217401318Y-68532699D01*
X217373591Y-68527270D01*
X217364606Y-68525918D01*
X217337124Y-68521919D01*
X217314257Y-68518214D01*
X217309134Y-68517271D01*
X217263664Y-68510689D01*
X217205074Y-68505736D01*
X217137103Y-68502417D01*
X217063486Y-68500742D01*
X216987960Y-68500716D01*
X216914262Y-68502349D01*
X216846129Y-68505646D01*
X216787298Y-68510617D01*
X216747560Y-68516134D01*
X216729667Y-68519117D01*
X216702182Y-68523501D01*
X216672255Y-68528165D01*
X216647040Y-68531991D01*
X216636601Y-68533494D01*
X216615353Y-68537689D01*
X216581904Y-68545791D01*
X216540232Y-68556705D01*
X216494311Y-68569338D01*
X216448121Y-68582594D01*
X216405637Y-68595379D01*
X216370835Y-68606599D01*
X216370119Y-68606842D01*
X216334970Y-68618951D01*
X216305886Y-68629443D01*
X216279230Y-68639861D01*
X216251366Y-68651747D01*
X216218656Y-68666643D01*
X216177464Y-68686091D01*
X216132834Y-68707464D01*
X216094841Y-68726981D01*
X216049251Y-68752397D01*
X215999166Y-68781776D01*
X215947689Y-68813181D01*
X215897920Y-68844678D01*
X215852962Y-68874331D01*
X215815916Y-68900204D01*
X215789884Y-68920361D01*
X215785613Y-68924140D01*
X215769414Y-68938339D01*
X215746243Y-68957813D01*
X215730579Y-68970656D01*
X215673595Y-69020352D01*
X215611462Y-69080599D01*
X215547864Y-69147500D01*
X215486484Y-69217157D01*
X215431007Y-69285675D01*
X215423625Y-69295345D01*
X215396355Y-69332532D01*
X215368486Y-69372537D01*
X215341784Y-69412589D01*
X215318014Y-69449920D01*
X215298939Y-69481760D01*
X215286326Y-69505339D01*
X215281934Y-69517688D01*
X215276233Y-69528726D01*
X215274421Y-69529678D01*
X215266693Y-69538917D01*
X215253983Y-69561173D01*
X215237504Y-69593704D01*
X215218469Y-69633768D01*
X215198090Y-69678621D01*
X215177578Y-69725521D01*
X215158145Y-69771725D01*
X215141005Y-69814491D01*
X215127369Y-69851076D01*
X215118449Y-69878738D01*
X215116331Y-69887375D01*
X215111759Y-69905038D01*
X215104060Y-69930733D01*
X215100319Y-69942409D01*
X215085738Y-69993209D01*
X215070933Y-70055886D01*
X215056867Y-70125426D01*
X215044505Y-70196813D01*
X215034810Y-70265034D01*
X215030219Y-70307200D01*
X215027450Y-70349809D01*
X215025604Y-70404085D01*
X215024676Y-70465425D01*
X215024659Y-70529228D01*
X213690201Y-70529228D01*
X213690201Y-67166067D01*
X226999800Y-67166067D01*
X226999800Y-73803933D01*
D14*
%TO.C,U1*%
X204510000Y-93860000D02*
X194270000Y-93860000D01*
X204510000Y-109750000D02*
X194270000Y-109750000D01*
X204510000Y-109750000D02*
X204510000Y-93860000D01*
X194270000Y-109750000D02*
X194270000Y-93860000D01*
X201930000Y-93860000D02*
X201930000Y-91320000D01*
X199390000Y-93860000D02*
X199390000Y-91320000D01*
X196850000Y-93860000D02*
X196850000Y-91320000D01*
%TO.C,C5*%
X158191252Y-102510000D02*
X156768748Y-102510000D01*
X158191252Y-100690000D02*
X156768748Y-100690000D01*
%TO.C,C4*%
X209825000Y-94196248D02*
X209825000Y-95618752D01*
X208005000Y-94196248D02*
X208005000Y-95618752D01*
%TO.C,R6*%
X111430000Y-88737631D02*
X111430000Y-90332369D01*
X107010000Y-88737631D02*
X107010000Y-90332369D01*
D16*
%TO.C,TP4*%
X125835000Y-84825000D02*
X129435000Y-84825000D01*
X129435000Y-84825000D02*
X129935000Y-85325000D01*
X129935000Y-85325000D02*
X129935000Y-86125000D01*
X129935000Y-86125000D02*
X129435000Y-86625000D01*
X129435000Y-86625000D02*
X125835000Y-86625000D01*
X125835000Y-86625000D02*
X125335000Y-86125000D01*
X125335000Y-86125000D02*
X125335000Y-85325000D01*
X125335000Y-85325000D02*
X125835000Y-84825000D01*
%TO.C,TP3*%
X143615000Y-77205000D02*
X147215000Y-77205000D01*
X147215000Y-77205000D02*
X147715000Y-77705000D01*
X147715000Y-77705000D02*
X147715000Y-78505000D01*
X147715000Y-78505000D02*
X147215000Y-79005000D01*
X147215000Y-79005000D02*
X143615000Y-79005000D01*
X143615000Y-79005000D02*
X143115000Y-78505000D01*
X143115000Y-78505000D02*
X143115000Y-77705000D01*
X143115000Y-77705000D02*
X143615000Y-77205000D01*
%TO.C,TP2*%
X135995000Y-54980000D02*
X139595000Y-54980000D01*
X139595000Y-54980000D02*
X140095000Y-55480000D01*
X140095000Y-55480000D02*
X140095000Y-56280000D01*
X140095000Y-56280000D02*
X139595000Y-56780000D01*
X139595000Y-56780000D02*
X135995000Y-56780000D01*
X135995000Y-56780000D02*
X135495000Y-56280000D01*
X135495000Y-56280000D02*
X135495000Y-55480000D01*
X135495000Y-55480000D02*
X135995000Y-54980000D01*
%TO.C,TP1*%
X138325000Y-102500000D02*
X134725000Y-102500000D01*
X134725000Y-102500000D02*
X134225000Y-102000000D01*
X134225000Y-102000000D02*
X134225000Y-101200000D01*
X134225000Y-101200000D02*
X134725000Y-100700000D01*
X134725000Y-100700000D02*
X138325000Y-100700000D01*
X138325000Y-100700000D02*
X138825000Y-101200000D01*
X138825000Y-101200000D02*
X138825000Y-102000000D01*
X138825000Y-102000000D02*
X138325000Y-102500000D01*
D14*
%TO.C,C1*%
X126923748Y-82825000D02*
X128346252Y-82825000D01*
X126923748Y-81005000D02*
X128346252Y-81005000D01*
D17*
%TO.C,IC1*%
X135590000Y-86955000D02*
X137115000Y-86955000D01*
X137465000Y-91986000D02*
X137465000Y-87084000D01*
X140665000Y-91986000D02*
X137465000Y-91986000D01*
X140665000Y-87084000D02*
X140665000Y-91986000D01*
X137465000Y-87084000D02*
X140665000Y-87084000D01*
%TO.C,IC2*%
X155880000Y-75019000D02*
X159080000Y-75019000D01*
X159080000Y-75019000D02*
X159080000Y-79921000D01*
X159080000Y-79921000D02*
X155880000Y-79921000D01*
X155880000Y-79921000D02*
X155880000Y-75019000D01*
X154005000Y-74890000D02*
X155530000Y-74890000D01*
D14*
%TO.C,J1*%
X156150000Y-97850000D02*
X158810000Y-97850000D01*
X156150000Y-92710000D02*
X156150000Y-97850000D01*
X158810000Y-92710000D02*
X158810000Y-97850000D01*
X156150000Y-92710000D02*
X158810000Y-92710000D01*
X156150000Y-91440000D02*
X156150000Y-90110000D01*
X156150000Y-90110000D02*
X157480000Y-90110000D01*
%TO.C,J2*%
X155995000Y-124460000D02*
G75*
G03*
X155995000Y-124460000I-5500000J0D01*
G01*
%TO.C,J3*%
X156150000Y-105350000D02*
X157480000Y-105350000D01*
X156150000Y-106680000D02*
X156150000Y-105350000D01*
X156150000Y-107950000D02*
X158810000Y-107950000D01*
X158810000Y-107950000D02*
X158810000Y-113090000D01*
X156150000Y-107950000D02*
X156150000Y-113090000D01*
X156150000Y-113090000D02*
X158810000Y-113090000D01*
%TO.C,J4*%
X94150000Y-95405000D02*
X94150000Y-65405000D01*
X83650000Y-65405000D02*
X83650000Y-95405000D01*
X83650000Y-95405000D02*
G75*
G03*
X94150000Y-95405000I5250000J0D01*
G01*
X94150000Y-65405000D02*
G75*
G03*
X83650000Y-65405000I-5250000J0D01*
G01*
%TO.C,J5*%
X185205000Y-57785000D02*
G75*
G03*
X185205000Y-57785000I-5500000J0D01*
G01*
%TO.C,J6*%
X179705000Y-129710000D02*
X209705000Y-129710000D01*
X209705000Y-119210000D02*
X179705000Y-119210000D01*
X179705000Y-119210000D02*
G75*
G03*
X179705000Y-129710000I0J-5250000D01*
G01*
X209705000Y-129710000D02*
G75*
G03*
X209705000Y-119210000I0J5250000D01*
G01*
D17*
%TO.C,Q1*%
X119735000Y-56200000D02*
X116840000Y-56200000D01*
X119735000Y-72070000D02*
X119735000Y-56200000D01*
X114525000Y-72070000D02*
X119735000Y-72070000D01*
D14*
%TO.C,R1*%
X146304000Y-97282000D02*
X148336000Y-97282000D01*
X148336000Y-95758000D02*
X146304000Y-95758000D01*
X142240000Y-97536000D02*
X152400000Y-97536000D01*
X152400000Y-95504000D02*
X142240000Y-95504000D01*
%TO.C,R2*%
X146304000Y-102362000D02*
X148336000Y-102362000D01*
X148336000Y-100838000D02*
X146304000Y-100838000D01*
X142240000Y-102616000D02*
X152400000Y-102616000D01*
X152400000Y-100584000D02*
X142240000Y-100584000D01*
%TO.C,R3*%
X122174000Y-59055000D02*
X122174000Y-69215000D01*
X124206000Y-69215000D02*
X124206000Y-59055000D01*
X122428000Y-63119000D02*
X122428000Y-65151000D01*
X123952000Y-65151000D02*
X123952000Y-63119000D01*
%TO.C,R4*%
X132715000Y-88519000D02*
X122555000Y-88519000D01*
X122555000Y-90551000D02*
X132715000Y-90551000D01*
X128651000Y-88773000D02*
X126619000Y-88773000D01*
X126619000Y-90297000D02*
X128651000Y-90297000D01*
%TO.C,R7*%
X101854000Y-84455000D02*
X101854000Y-94615000D01*
X103886000Y-94615000D02*
X103886000Y-84455000D01*
X102108000Y-88519000D02*
X102108000Y-90551000D01*
X103632000Y-90551000D02*
X103632000Y-88519000D01*
%TO.C,R8*%
X158496000Y-70993000D02*
X156464000Y-70993000D01*
X156464000Y-72517000D02*
X158496000Y-72517000D01*
X162560000Y-70739000D02*
X152400000Y-70739000D01*
X152400000Y-72771000D02*
X162560000Y-72771000D01*
%TO.C,R10*%
X162560000Y-65659000D02*
X152400000Y-65659000D01*
X152400000Y-67691000D02*
X162560000Y-67691000D01*
X158496000Y-65913000D02*
X156464000Y-65913000D01*
X156464000Y-67437000D02*
X158496000Y-67437000D01*
%TO.C,RV1*%
X124745000Y-114545000D02*
X125575000Y-114545000D01*
X127195000Y-114545000D02*
X127725000Y-114545000D01*
X130095000Y-114545000D02*
X131275000Y-114545000D01*
X121535000Y-114545000D02*
X121535000Y-119265000D01*
X131275000Y-123075000D02*
X131275000Y-126135000D01*
X131285000Y-114545000D02*
X131285000Y-119265000D01*
X121535000Y-123075000D02*
X121535000Y-126135000D01*
X121535000Y-114545000D02*
X123025000Y-114545000D01*
X121535000Y-126135000D02*
X131275000Y-126135000D01*
%TO.C,R9*%
D16*
X132548333Y-109037380D02*
X132215000Y-108561190D01*
X131976904Y-109037380D02*
X131976904Y-108037380D01*
X132357857Y-108037380D01*
X132453095Y-108085000D01*
X132500714Y-108132619D01*
X132548333Y-108227857D01*
X132548333Y-108370714D01*
X132500714Y-108465952D01*
X132453095Y-108513571D01*
X132357857Y-108561190D01*
X131976904Y-108561190D01*
X133024523Y-109037380D02*
X133215000Y-109037380D01*
X133310238Y-108989761D01*
X133357857Y-108942142D01*
X133453095Y-108799285D01*
X133500714Y-108608809D01*
X133500714Y-108227857D01*
X133453095Y-108132619D01*
X133405476Y-108085000D01*
X133310238Y-108037380D01*
X133119761Y-108037380D01*
X133024523Y-108085000D01*
X132976904Y-108132619D01*
X132929285Y-108227857D01*
X132929285Y-108465952D01*
X132976904Y-108561190D01*
X133024523Y-108608809D01*
X133119761Y-108656428D01*
X133310238Y-108656428D01*
X133405476Y-108608809D01*
X133453095Y-108561190D01*
X133500714Y-108465952D01*
%TO.C,R13*%
X146677142Y-105227380D02*
X146343809Y-104751190D01*
X146105714Y-105227380D02*
X146105714Y-104227380D01*
X146486666Y-104227380D01*
X146581904Y-104275000D01*
X146629523Y-104322619D01*
X146677142Y-104417857D01*
X146677142Y-104560714D01*
X146629523Y-104655952D01*
X146581904Y-104703571D01*
X146486666Y-104751190D01*
X146105714Y-104751190D01*
X147629523Y-105227380D02*
X147058095Y-105227380D01*
X147343809Y-105227380D02*
X147343809Y-104227380D01*
X147248571Y-104370238D01*
X147153333Y-104465476D01*
X147058095Y-104513095D01*
X147962857Y-104227380D02*
X148581904Y-104227380D01*
X148248571Y-104608333D01*
X148391428Y-104608333D01*
X148486666Y-104655952D01*
X148534285Y-104703571D01*
X148581904Y-104798809D01*
X148581904Y-105036904D01*
X148534285Y-105132142D01*
X148486666Y-105179761D01*
X148391428Y-105227380D01*
X148105714Y-105227380D01*
X148010476Y-105179761D01*
X147962857Y-105132142D01*
%TO.C,R12*%
X146677142Y-110307380D02*
X146343809Y-109831190D01*
X146105714Y-110307380D02*
X146105714Y-109307380D01*
X146486666Y-109307380D01*
X146581904Y-109355000D01*
X146629523Y-109402619D01*
X146677142Y-109497857D01*
X146677142Y-109640714D01*
X146629523Y-109735952D01*
X146581904Y-109783571D01*
X146486666Y-109831190D01*
X146105714Y-109831190D01*
X147629523Y-110307380D02*
X147058095Y-110307380D01*
X147343809Y-110307380D02*
X147343809Y-109307380D01*
X147248571Y-109450238D01*
X147153333Y-109545476D01*
X147058095Y-109593095D01*
X148010476Y-109402619D02*
X148058095Y-109355000D01*
X148153333Y-109307380D01*
X148391428Y-109307380D01*
X148486666Y-109355000D01*
X148534285Y-109402619D01*
X148581904Y-109497857D01*
X148581904Y-109593095D01*
X148534285Y-109735952D01*
X147962857Y-110307380D01*
X148581904Y-110307380D01*
%TO.C,R5*%
X112863333Y-84907380D02*
X112530000Y-84431190D01*
X112291904Y-84907380D02*
X112291904Y-83907380D01*
X112672857Y-83907380D01*
X112768095Y-83955000D01*
X112815714Y-84002619D01*
X112863333Y-84097857D01*
X112863333Y-84240714D01*
X112815714Y-84335952D01*
X112768095Y-84383571D01*
X112672857Y-84431190D01*
X112291904Y-84431190D01*
X113768095Y-83907380D02*
X113291904Y-83907380D01*
X113244285Y-84383571D01*
X113291904Y-84335952D01*
X113387142Y-84288333D01*
X113625238Y-84288333D01*
X113720476Y-84335952D01*
X113768095Y-84383571D01*
X113815714Y-84478809D01*
X113815714Y-84716904D01*
X113768095Y-84812142D01*
X113720476Y-84859761D01*
X113625238Y-84907380D01*
X113387142Y-84907380D01*
X113291904Y-84859761D01*
X113244285Y-84812142D01*
%TO.C,U1*%
X198628095Y-87717380D02*
X198628095Y-88526904D01*
X198675714Y-88622142D01*
X198723333Y-88669761D01*
X198818571Y-88717380D01*
X199009047Y-88717380D01*
X199104285Y-88669761D01*
X199151904Y-88622142D01*
X199199523Y-88526904D01*
X199199523Y-87717380D01*
X200199523Y-88717380D02*
X199628095Y-88717380D01*
X199913809Y-88717380D02*
X199913809Y-87717380D01*
X199818571Y-87860238D01*
X199723333Y-87955476D01*
X199628095Y-88003095D01*
%TO.C,C5*%
X157313333Y-100052142D02*
X157265714Y-100099761D01*
X157122857Y-100147380D01*
X157027619Y-100147380D01*
X156884761Y-100099761D01*
X156789523Y-100004523D01*
X156741904Y-99909285D01*
X156694285Y-99718809D01*
X156694285Y-99575952D01*
X156741904Y-99385476D01*
X156789523Y-99290238D01*
X156884761Y-99195000D01*
X157027619Y-99147380D01*
X157122857Y-99147380D01*
X157265714Y-99195000D01*
X157313333Y-99242619D01*
X158218095Y-99147380D02*
X157741904Y-99147380D01*
X157694285Y-99623571D01*
X157741904Y-99575952D01*
X157837142Y-99528333D01*
X158075238Y-99528333D01*
X158170476Y-99575952D01*
X158218095Y-99623571D01*
X158265714Y-99718809D01*
X158265714Y-99956904D01*
X158218095Y-100052142D01*
X158170476Y-100099761D01*
X158075238Y-100147380D01*
X157837142Y-100147380D01*
X157741904Y-100099761D01*
X157694285Y-100052142D01*
%TO.C,C4*%
X210653333Y-95264642D02*
X210605714Y-95312261D01*
X210462857Y-95359880D01*
X210367619Y-95359880D01*
X210224761Y-95312261D01*
X210129523Y-95217023D01*
X210081904Y-95121785D01*
X210034285Y-94931309D01*
X210034285Y-94788452D01*
X210081904Y-94597976D01*
X210129523Y-94502738D01*
X210224761Y-94407500D01*
X210367619Y-94359880D01*
X210462857Y-94359880D01*
X210605714Y-94407500D01*
X210653333Y-94455119D01*
X211510476Y-94693214D02*
X211510476Y-95359880D01*
X211272380Y-94312261D02*
X211034285Y-95026547D01*
X211653333Y-95026547D01*
%TO.C,R6*%
X105878333Y-84907380D02*
X105545000Y-84431190D01*
X105306904Y-84907380D02*
X105306904Y-83907380D01*
X105687857Y-83907380D01*
X105783095Y-83955000D01*
X105830714Y-84002619D01*
X105878333Y-84097857D01*
X105878333Y-84240714D01*
X105830714Y-84335952D01*
X105783095Y-84383571D01*
X105687857Y-84431190D01*
X105306904Y-84431190D01*
X106735476Y-83907380D02*
X106545000Y-83907380D01*
X106449761Y-83955000D01*
X106402142Y-84002619D01*
X106306904Y-84145476D01*
X106259285Y-84335952D01*
X106259285Y-84716904D01*
X106306904Y-84812142D01*
X106354523Y-84859761D01*
X106449761Y-84907380D01*
X106640238Y-84907380D01*
X106735476Y-84859761D01*
X106783095Y-84812142D01*
X106830714Y-84716904D01*
X106830714Y-84478809D01*
X106783095Y-84383571D01*
X106735476Y-84335952D01*
X106640238Y-84288333D01*
X106449761Y-84288333D01*
X106354523Y-84335952D01*
X106306904Y-84383571D01*
X106259285Y-84478809D01*
%TO.C,TP4*%
X126403095Y-83177380D02*
X126974523Y-83177380D01*
X126688809Y-84177380D02*
X126688809Y-83177380D01*
X127307857Y-84177380D02*
X127307857Y-83177380D01*
X127688809Y-83177380D01*
X127784047Y-83225000D01*
X127831666Y-83272619D01*
X127879285Y-83367857D01*
X127879285Y-83510714D01*
X127831666Y-83605952D01*
X127784047Y-83653571D01*
X127688809Y-83701190D01*
X127307857Y-83701190D01*
X128736428Y-83510714D02*
X128736428Y-84177380D01*
X128498333Y-83129761D02*
X128260238Y-83844047D01*
X128879285Y-83844047D01*
%TO.C,TP3*%
X144183095Y-75557380D02*
X144754523Y-75557380D01*
X144468809Y-76557380D02*
X144468809Y-75557380D01*
X145087857Y-76557380D02*
X145087857Y-75557380D01*
X145468809Y-75557380D01*
X145564047Y-75605000D01*
X145611666Y-75652619D01*
X145659285Y-75747857D01*
X145659285Y-75890714D01*
X145611666Y-75985952D01*
X145564047Y-76033571D01*
X145468809Y-76081190D01*
X145087857Y-76081190D01*
X145992619Y-75557380D02*
X146611666Y-75557380D01*
X146278333Y-75938333D01*
X146421190Y-75938333D01*
X146516428Y-75985952D01*
X146564047Y-76033571D01*
X146611666Y-76128809D01*
X146611666Y-76366904D01*
X146564047Y-76462142D01*
X146516428Y-76509761D01*
X146421190Y-76557380D01*
X146135476Y-76557380D01*
X146040238Y-76509761D01*
X145992619Y-76462142D01*
%TO.C,TP2*%
X136563095Y-53332380D02*
X137134523Y-53332380D01*
X136848809Y-54332380D02*
X136848809Y-53332380D01*
X137467857Y-54332380D02*
X137467857Y-53332380D01*
X137848809Y-53332380D01*
X137944047Y-53380000D01*
X137991666Y-53427619D01*
X138039285Y-53522857D01*
X138039285Y-53665714D01*
X137991666Y-53760952D01*
X137944047Y-53808571D01*
X137848809Y-53856190D01*
X137467857Y-53856190D01*
X138420238Y-53427619D02*
X138467857Y-53380000D01*
X138563095Y-53332380D01*
X138801190Y-53332380D01*
X138896428Y-53380000D01*
X138944047Y-53427619D01*
X138991666Y-53522857D01*
X138991666Y-53618095D01*
X138944047Y-53760952D01*
X138372619Y-54332380D01*
X138991666Y-54332380D01*
%TO.C,TP1*%
X135263095Y-99147380D02*
X135834523Y-99147380D01*
X135548809Y-100147380D02*
X135548809Y-99147380D01*
X136167857Y-100147380D02*
X136167857Y-99147380D01*
X136548809Y-99147380D01*
X136644047Y-99195000D01*
X136691666Y-99242619D01*
X136739285Y-99337857D01*
X136739285Y-99480714D01*
X136691666Y-99575952D01*
X136644047Y-99623571D01*
X136548809Y-99671190D01*
X136167857Y-99671190D01*
X137691666Y-100147380D02*
X137120238Y-100147380D01*
X137405952Y-100147380D02*
X137405952Y-99147380D01*
X137310714Y-99290238D01*
X137215476Y-99385476D01*
X137120238Y-99433095D01*
%TO.C,C1*%
X127468333Y-80422142D02*
X127420714Y-80469761D01*
X127277857Y-80517380D01*
X127182619Y-80517380D01*
X127039761Y-80469761D01*
X126944523Y-80374523D01*
X126896904Y-80279285D01*
X126849285Y-80088809D01*
X126849285Y-79945952D01*
X126896904Y-79755476D01*
X126944523Y-79660238D01*
X127039761Y-79565000D01*
X127182619Y-79517380D01*
X127277857Y-79517380D01*
X127420714Y-79565000D01*
X127468333Y-79612619D01*
X128420714Y-80517380D02*
X127849285Y-80517380D01*
X128135000Y-80517380D02*
X128135000Y-79517380D01*
X128039761Y-79660238D01*
X127944523Y-79755476D01*
X127849285Y-79803095D01*
%TO.C,IC1*%
D18*
X137825238Y-86299523D02*
X137825238Y-85029523D01*
X139155714Y-86178571D02*
X139095238Y-86239047D01*
X138913809Y-86299523D01*
X138792857Y-86299523D01*
X138611428Y-86239047D01*
X138490476Y-86118095D01*
X138430000Y-85997142D01*
X138369523Y-85755238D01*
X138369523Y-85573809D01*
X138430000Y-85331904D01*
X138490476Y-85210952D01*
X138611428Y-85090000D01*
X138792857Y-85029523D01*
X138913809Y-85029523D01*
X139095238Y-85090000D01*
X139155714Y-85150476D01*
X140365238Y-86299523D02*
X139639523Y-86299523D01*
X140002380Y-86299523D02*
X140002380Y-85029523D01*
X139881428Y-85210952D01*
X139760476Y-85331904D01*
X139639523Y-85392380D01*
%TO.C,IC2*%
X156240238Y-74234523D02*
X156240238Y-72964523D01*
X157570714Y-74113571D02*
X157510238Y-74174047D01*
X157328809Y-74234523D01*
X157207857Y-74234523D01*
X157026428Y-74174047D01*
X156905476Y-74053095D01*
X156845000Y-73932142D01*
X156784523Y-73690238D01*
X156784523Y-73508809D01*
X156845000Y-73266904D01*
X156905476Y-73145952D01*
X157026428Y-73025000D01*
X157207857Y-72964523D01*
X157328809Y-72964523D01*
X157510238Y-73025000D01*
X157570714Y-73085476D01*
X158054523Y-73085476D02*
X158115000Y-73025000D01*
X158235952Y-72964523D01*
X158538333Y-72964523D01*
X158659285Y-73025000D01*
X158719761Y-73085476D01*
X158780238Y-73206428D01*
X158780238Y-73327380D01*
X158719761Y-73508809D01*
X157994047Y-74234523D01*
X158780238Y-74234523D01*
%TO.C,J1*%
D16*
X157146666Y-88562380D02*
X157146666Y-89276666D01*
X157099047Y-89419523D01*
X157003809Y-89514761D01*
X156860952Y-89562380D01*
X156765714Y-89562380D01*
X158146666Y-89562380D02*
X157575238Y-89562380D01*
X157860952Y-89562380D02*
X157860952Y-88562380D01*
X157765714Y-88705238D01*
X157670476Y-88800476D01*
X157575238Y-88848095D01*
%TO.C,J2*%
X150161666Y-117562380D02*
X150161666Y-118276666D01*
X150114047Y-118419523D01*
X150018809Y-118514761D01*
X149875952Y-118562380D01*
X149780714Y-118562380D01*
X150590238Y-117657619D02*
X150637857Y-117610000D01*
X150733095Y-117562380D01*
X150971190Y-117562380D01*
X151066428Y-117610000D01*
X151114047Y-117657619D01*
X151161666Y-117752857D01*
X151161666Y-117848095D01*
X151114047Y-117990952D01*
X150542619Y-118562380D01*
X151161666Y-118562380D01*
%TO.C,J3*%
X157146666Y-103802380D02*
X157146666Y-104516666D01*
X157099047Y-104659523D01*
X157003809Y-104754761D01*
X156860952Y-104802380D01*
X156765714Y-104802380D01*
X157527619Y-103802380D02*
X158146666Y-103802380D01*
X157813333Y-104183333D01*
X157956190Y-104183333D01*
X158051428Y-104230952D01*
X158099047Y-104278571D01*
X158146666Y-104373809D01*
X158146666Y-104611904D01*
X158099047Y-104707142D01*
X158051428Y-104754761D01*
X157956190Y-104802380D01*
X157670476Y-104802380D01*
X157575238Y-104754761D01*
X157527619Y-104707142D01*
%TO.C,J4*%
X88566666Y-58507380D02*
X88566666Y-59221666D01*
X88519047Y-59364523D01*
X88423809Y-59459761D01*
X88280952Y-59507380D01*
X88185714Y-59507380D01*
X89471428Y-58840714D02*
X89471428Y-59507380D01*
X89233333Y-58459761D02*
X88995238Y-59174047D01*
X89614285Y-59174047D01*
%TO.C,J5*%
X179371666Y-50887380D02*
X179371666Y-51601666D01*
X179324047Y-51744523D01*
X179228809Y-51839761D01*
X179085952Y-51887380D01*
X178990714Y-51887380D01*
X180324047Y-50887380D02*
X179847857Y-50887380D01*
X179800238Y-51363571D01*
X179847857Y-51315952D01*
X179943095Y-51268333D01*
X180181190Y-51268333D01*
X180276428Y-51315952D01*
X180324047Y-51363571D01*
X180371666Y-51458809D01*
X180371666Y-51696904D01*
X180324047Y-51792142D01*
X180276428Y-51839761D01*
X180181190Y-51887380D01*
X179943095Y-51887380D01*
X179847857Y-51839761D01*
X179800238Y-51792142D01*
%TO.C,J6*%
X194356666Y-117672380D02*
X194356666Y-118386666D01*
X194309047Y-118529523D01*
X194213809Y-118624761D01*
X194070952Y-118672380D01*
X193975714Y-118672380D01*
X195261428Y-117672380D02*
X195070952Y-117672380D01*
X194975714Y-117720000D01*
X194928095Y-117767619D01*
X194832857Y-117910476D01*
X194785238Y-118100952D01*
X194785238Y-118481904D01*
X194832857Y-118577142D01*
X194880476Y-118624761D01*
X194975714Y-118672380D01*
X195166190Y-118672380D01*
X195261428Y-118624761D01*
X195309047Y-118577142D01*
X195356666Y-118481904D01*
X195356666Y-118243809D01*
X195309047Y-118148571D01*
X195261428Y-118100952D01*
X195166190Y-118053333D01*
X194975714Y-118053333D01*
X194880476Y-118100952D01*
X194832857Y-118148571D01*
X194785238Y-118243809D01*
%TO.C,Q1*%
D18*
X116719047Y-55940476D02*
X116598095Y-55880000D01*
X116477142Y-55759047D01*
X116295714Y-55577619D01*
X116174761Y-55517142D01*
X116053809Y-55517142D01*
X116114285Y-55819523D02*
X115993333Y-55759047D01*
X115872380Y-55638095D01*
X115811904Y-55396190D01*
X115811904Y-54972857D01*
X115872380Y-54730952D01*
X115993333Y-54610000D01*
X116114285Y-54549523D01*
X116356190Y-54549523D01*
X116477142Y-54610000D01*
X116598095Y-54730952D01*
X116658571Y-54972857D01*
X116658571Y-55396190D01*
X116598095Y-55638095D01*
X116477142Y-55759047D01*
X116356190Y-55819523D01*
X116114285Y-55819523D01*
X117868095Y-55819523D02*
X117142380Y-55819523D01*
X117505238Y-55819523D02*
X117505238Y-54549523D01*
X117384285Y-54730952D01*
X117263333Y-54851904D01*
X117142380Y-54912380D01*
%TO.C,R1*%
D16*
X147153333Y-95067380D02*
X146820000Y-94591190D01*
X146581904Y-95067380D02*
X146581904Y-94067380D01*
X146962857Y-94067380D01*
X147058095Y-94115000D01*
X147105714Y-94162619D01*
X147153333Y-94257857D01*
X147153333Y-94400714D01*
X147105714Y-94495952D01*
X147058095Y-94543571D01*
X146962857Y-94591190D01*
X146581904Y-94591190D01*
X148105714Y-95067380D02*
X147534285Y-95067380D01*
X147820000Y-95067380D02*
X147820000Y-94067380D01*
X147724761Y-94210238D01*
X147629523Y-94305476D01*
X147534285Y-94353095D01*
%TO.C,R2*%
X147153333Y-100147380D02*
X146820000Y-99671190D01*
X146581904Y-100147380D02*
X146581904Y-99147380D01*
X146962857Y-99147380D01*
X147058095Y-99195000D01*
X147105714Y-99242619D01*
X147153333Y-99337857D01*
X147153333Y-99480714D01*
X147105714Y-99575952D01*
X147058095Y-99623571D01*
X146962857Y-99671190D01*
X146581904Y-99671190D01*
X147534285Y-99242619D02*
X147581904Y-99195000D01*
X147677142Y-99147380D01*
X147915238Y-99147380D01*
X148010476Y-99195000D01*
X148058095Y-99242619D01*
X148105714Y-99337857D01*
X148105714Y-99433095D01*
X148058095Y-99575952D01*
X147486666Y-100147380D01*
X148105714Y-100147380D01*
%TO.C,R3*%
X121118333Y-64587380D02*
X120785000Y-64111190D01*
X120546904Y-64587380D02*
X120546904Y-63587380D01*
X120927857Y-63587380D01*
X121023095Y-63635000D01*
X121070714Y-63682619D01*
X121118333Y-63777857D01*
X121118333Y-63920714D01*
X121070714Y-64015952D01*
X121023095Y-64063571D01*
X120927857Y-64111190D01*
X120546904Y-64111190D01*
X121451666Y-63587380D02*
X122070714Y-63587380D01*
X121737380Y-63968333D01*
X121880238Y-63968333D01*
X121975476Y-64015952D01*
X122023095Y-64063571D01*
X122070714Y-64158809D01*
X122070714Y-64396904D01*
X122023095Y-64492142D01*
X121975476Y-64539761D01*
X121880238Y-64587380D01*
X121594523Y-64587380D01*
X121499285Y-64539761D01*
X121451666Y-64492142D01*
%TO.C,R4*%
X127468333Y-88082380D02*
X127135000Y-87606190D01*
X126896904Y-88082380D02*
X126896904Y-87082380D01*
X127277857Y-87082380D01*
X127373095Y-87130000D01*
X127420714Y-87177619D01*
X127468333Y-87272857D01*
X127468333Y-87415714D01*
X127420714Y-87510952D01*
X127373095Y-87558571D01*
X127277857Y-87606190D01*
X126896904Y-87606190D01*
X128325476Y-87415714D02*
X128325476Y-88082380D01*
X128087380Y-87034761D02*
X127849285Y-87749047D01*
X128468333Y-87749047D01*
%TO.C,R7*%
X100163333Y-89987380D02*
X99830000Y-89511190D01*
X99591904Y-89987380D02*
X99591904Y-88987380D01*
X99972857Y-88987380D01*
X100068095Y-89035000D01*
X100115714Y-89082619D01*
X100163333Y-89177857D01*
X100163333Y-89320714D01*
X100115714Y-89415952D01*
X100068095Y-89463571D01*
X99972857Y-89511190D01*
X99591904Y-89511190D01*
X100496666Y-88987380D02*
X101163333Y-88987380D01*
X100734761Y-89987380D01*
%TO.C,R8*%
X157313333Y-70302380D02*
X156980000Y-69826190D01*
X156741904Y-70302380D02*
X156741904Y-69302380D01*
X157122857Y-69302380D01*
X157218095Y-69350000D01*
X157265714Y-69397619D01*
X157313333Y-69492857D01*
X157313333Y-69635714D01*
X157265714Y-69730952D01*
X157218095Y-69778571D01*
X157122857Y-69826190D01*
X156741904Y-69826190D01*
X157884761Y-69730952D02*
X157789523Y-69683333D01*
X157741904Y-69635714D01*
X157694285Y-69540476D01*
X157694285Y-69492857D01*
X157741904Y-69397619D01*
X157789523Y-69350000D01*
X157884761Y-69302380D01*
X158075238Y-69302380D01*
X158170476Y-69350000D01*
X158218095Y-69397619D01*
X158265714Y-69492857D01*
X158265714Y-69540476D01*
X158218095Y-69635714D01*
X158170476Y-69683333D01*
X158075238Y-69730952D01*
X157884761Y-69730952D01*
X157789523Y-69778571D01*
X157741904Y-69826190D01*
X157694285Y-69921428D01*
X157694285Y-70111904D01*
X157741904Y-70207142D01*
X157789523Y-70254761D01*
X157884761Y-70302380D01*
X158075238Y-70302380D01*
X158170476Y-70254761D01*
X158218095Y-70207142D01*
X158265714Y-70111904D01*
X158265714Y-69921428D01*
X158218095Y-69826190D01*
X158170476Y-69778571D01*
X158075238Y-69730952D01*
%TO.C,R10*%
X156837142Y-65222380D02*
X156503809Y-64746190D01*
X156265714Y-65222380D02*
X156265714Y-64222380D01*
X156646666Y-64222380D01*
X156741904Y-64270000D01*
X156789523Y-64317619D01*
X156837142Y-64412857D01*
X156837142Y-64555714D01*
X156789523Y-64650952D01*
X156741904Y-64698571D01*
X156646666Y-64746190D01*
X156265714Y-64746190D01*
X157789523Y-65222380D02*
X157218095Y-65222380D01*
X157503809Y-65222380D02*
X157503809Y-64222380D01*
X157408571Y-64365238D01*
X157313333Y-64460476D01*
X157218095Y-64508095D01*
X158408571Y-64222380D02*
X158503809Y-64222380D01*
X158599047Y-64270000D01*
X158646666Y-64317619D01*
X158694285Y-64412857D01*
X158741904Y-64603333D01*
X158741904Y-64841428D01*
X158694285Y-65031904D01*
X158646666Y-65127142D01*
X158599047Y-65174761D01*
X158503809Y-65222380D01*
X158408571Y-65222380D01*
X158313333Y-65174761D01*
X158265714Y-65127142D01*
X158218095Y-65031904D01*
X158170476Y-64841428D01*
X158170476Y-64603333D01*
X158218095Y-64412857D01*
X158265714Y-64317619D01*
X158313333Y-64270000D01*
X158408571Y-64222380D01*
%TO.C,RV1*%
X120689761Y-112212380D02*
X120356428Y-111736190D01*
X120118333Y-112212380D02*
X120118333Y-111212380D01*
X120499285Y-111212380D01*
X120594523Y-111260000D01*
X120642142Y-111307619D01*
X120689761Y-111402857D01*
X120689761Y-111545714D01*
X120642142Y-111640952D01*
X120594523Y-111688571D01*
X120499285Y-111736190D01*
X120118333Y-111736190D01*
X120975476Y-111212380D02*
X121308809Y-112212380D01*
X121642142Y-111212380D01*
X122499285Y-112212380D02*
X121927857Y-112212380D01*
X122213571Y-112212380D02*
X122213571Y-111212380D01*
X122118333Y-111355238D01*
X122023095Y-111450476D01*
X121927857Y-111498095D01*
%TD*%
M02*
