%TF.GenerationSoftware,KiCad,Pcbnew,(5.1.7)-1*%
%TF.CreationDate,2022-02-05T15:55:05+01:00*%
%TF.ProjectId,Dev_Board,4465765f-426f-4617-9264-2e6b69636164,rev?*%
%TF.SameCoordinates,Original*%
%TF.FileFunction,Soldermask,Bot*%
%TF.FilePolarity,Negative*%
%FSLAX46Y46*%
G04 Gerber Fmt 4.6, Leading zero omitted, Abs format (unit mm)*
G04 Created by KiCad (PCBNEW (5.1.7)-1) date 2022-02-05 15:55:05*
%MOMM*%
%LPD*%
G01*
G04 APERTURE LIST*
%ADD10C,3.000000*%
%ADD11C,1.600000*%
%ADD12C,4.000000*%
%ADD13O,1.905000X2.000000*%
%ADD14R,1.905000X2.000000*%
%ADD15O,3.500000X3.500000*%
%ADD16C,1.400000*%
%ADD17O,1.700000X1.700000*%
%ADD18R,1.700000X1.700000*%
%ADD19C,10.160000*%
%ADD20R,2.550000X2.550000*%
%ADD21C,2.550000*%
%ADD22R,1.800000X1.800000*%
%ADD23C,1.800000*%
%ADD24C,3.240000*%
G04 APERTURE END LIST*
D10*
X116840000Y-64135000D02*
X89535000Y-64135000D01*
X116840000Y-80645000D02*
X116840000Y-69215000D01*
X116840000Y-98425000D02*
X90170000Y-98425000D01*
D11*
%TO.C,R9*%
X127635000Y-106680000D03*
X137795000Y-106680000D03*
%TD*%
%TO.C,R13*%
X152400000Y-106680000D03*
X142240000Y-106680000D03*
%TD*%
%TO.C,R12*%
X142240000Y-111760000D03*
X152400000Y-111760000D03*
%TD*%
D12*
%TO.C,R5*%
X116840000Y-80645000D03*
X116840000Y-85725000D03*
X116840000Y-92916000D03*
X116840000Y-98425000D03*
%TD*%
D13*
%TO.C,U1*%
X196850000Y-90170000D03*
X199390000Y-90170000D03*
D14*
X201930000Y-90170000D03*
D15*
X199390000Y-106830000D03*
%TD*%
D16*
%TO.C,TP4*%
X128905000Y-85725000D03*
X126365000Y-85725000D03*
%TD*%
%TO.C,TP3*%
X146685000Y-78105000D03*
X144145000Y-78105000D03*
%TD*%
%TO.C,TP2*%
X139065000Y-55880000D03*
X136525000Y-55880000D03*
%TD*%
%TO.C,TP1*%
X135255000Y-101600000D03*
X137795000Y-101600000D03*
%TD*%
D17*
%TO.C,J1*%
X157480000Y-96520000D03*
X157480000Y-93980000D03*
D18*
X157480000Y-91440000D03*
%TD*%
D19*
%TO.C,J2*%
X150495000Y-124460000D03*
%TD*%
D18*
%TO.C,J3*%
X157480000Y-106680000D03*
D17*
X157480000Y-109220000D03*
X157480000Y-111760000D03*
%TD*%
D19*
%TO.C,J4*%
X88900000Y-65405000D03*
X88900000Y-95375000D03*
%TD*%
%TO.C,J5*%
X179705000Y-57785000D03*
%TD*%
%TO.C,J6*%
X209675000Y-124460000D03*
X179705000Y-124460000D03*
%TD*%
D20*
%TO.C,Q1*%
X116840000Y-58695000D03*
D21*
X116840000Y-64135000D03*
X116840000Y-69575000D03*
%TD*%
D11*
%TO.C,R1*%
X142240000Y-96520000D03*
X152400000Y-96520000D03*
%TD*%
%TO.C,R2*%
X142240000Y-101600000D03*
X152400000Y-101600000D03*
%TD*%
%TO.C,R3*%
X123190000Y-59055000D03*
X123190000Y-69215000D03*
%TD*%
%TO.C,R4*%
X132715000Y-89535000D03*
X122555000Y-89535000D03*
%TD*%
%TO.C,R7*%
X102870000Y-84455000D03*
X102870000Y-94615000D03*
%TD*%
%TO.C,R8*%
X162560000Y-71755000D03*
X152400000Y-71755000D03*
%TD*%
%TO.C,R10*%
X162560000Y-66675000D03*
X152400000Y-66675000D03*
%TD*%
D22*
%TO.C,RV1*%
X128905000Y-113665000D03*
D23*
X126405000Y-113665000D03*
X123905000Y-113665000D03*
D24*
X121605000Y-121165000D03*
X131205000Y-121165000D03*
%TD*%
M02*
